<svg width="121" height="93" viewBox="0 0 121 93" fill="none" xmlns="http://www.w3.org/2000/svg">
<g clip-path="url(#clip0_101_3613)">
<path d="M75.0723 5.18337C75.1155 5.21896 75.1587 5.25455 75.2032 5.29122C76.3767 6.26393 77.5114 7.33993 78.4312 8.56091C78.5109 8.66347 78.5908 8.76594 78.6707 8.86834C82.4597 13.7494 84.1497 19.8785 83.4681 26.031C83.1797 28.3439 82.5656 30.5443 81.6339 32.6749C81.6063 32.7385 81.5788 32.802 81.5504 32.8675C80.5925 35.0523 79.256 37.0138 77.6595 38.7749C77.5088 38.9421 77.3618 39.1117 77.2155 39.2827C76.749 39.8199 76.2402 40.3073 75.6972 40.7653C75.6549 40.801 75.6126 40.8368 75.5691 40.8736C74.4316 41.8309 73.2445 42.7087 71.9477 43.4359C71.8835 43.4719 71.8193 43.508 71.7531 43.5451C69.049 45.0467 66.1142 45.9964 63.0426 46.3422C62.953 46.3533 62.953 46.3533 62.8616 46.3646C62.1029 46.448 61.3393 46.4398 60.5771 46.4403C60.5023 46.4404 60.4275 46.4404 60.3505 46.4405C59.149 46.4391 57.9804 46.3872 56.7934 46.1851C56.714 46.172 56.6347 46.1589 56.553 46.1455C52.1743 45.4046 48.1877 43.3682 44.9199 40.3726C44.7848 40.2514 44.6498 40.1303 44.5147 40.0093C43.988 39.5318 43.5016 39.0331 43.0451 38.4874C43.0095 38.4448 42.9738 38.4022 42.9371 38.3582C40.0474 34.8867 38.2063 30.8042 37.5771 26.3126C37.5679 26.249 37.5588 26.1855 37.5494 26.12C37.2851 24.1955 37.2985 22.1074 37.5771 20.1859C37.5872 20.1157 37.5972 20.0456 37.6076 19.9733C38.1993 15.9906 39.7295 12.0981 42.264 8.95364C42.3207 8.88155 42.3774 8.80946 42.4358 8.73518C43.4641 7.44312 44.6303 6.19337 45.9354 5.18337C46.0359 5.10364 46.1364 5.02386 46.2369 4.94405C52.1545 0.278865 59.8974 -1.11411 75.0723 5.18337ZM47.4196 6.75432C47.3442 6.81396 47.2687 6.87359 47.191 6.93504C46.6026 7.41624 46.0628 7.94498 45.5253 8.48236C45.4532 8.55412 45.3811 8.62588 45.3068 8.69982C44.1096 9.90917 43.0864 11.31 42.264 12.8025C42.2279 12.8677 42.1917 12.933 42.1545 13.0002C39.4998 17.8394 38.7494 23.6237 40.2797 28.9583C41.0269 31.4485 42.1305 33.728 43.6701 35.8168C43.7056 35.8651 43.7411 35.9134 43.7777 35.9631C44.3416 36.7224 44.969 37.4134 45.6229 38.0947C45.6932 38.1686 45.7635 38.2425 45.8359 38.3187C46.2835 38.7802 46.7607 39.1877 47.2633 39.5871C47.347 39.6556 47.4306 39.7243 47.5142 39.793C50.5254 42.2492 54.2776 43.7766 58.1213 44.2214C58.175 44.2287 58.2287 44.236 58.284 44.2435C58.9974 44.3308 59.718 44.3191 60.4355 44.3196C60.5427 44.3196 60.5427 44.3196 60.652 44.3197C61.7766 44.3184 62.8717 44.2713 63.9799 44.0643C64.088 44.0447 64.088 44.0447 64.1983 44.0247C66.0777 43.6745 67.8804 43.0861 69.6042 42.2577C69.6687 42.2267 69.7332 42.1958 69.7996 42.1639C71.2126 41.4743 72.5287 40.5852 73.7443 39.5871C73.8077 39.5353 73.8077 39.5353 73.8724 39.4825C74.9441 38.6014 75.9465 37.6287 76.7908 36.5237C76.8681 36.4264 76.9455 36.3292 77.023 36.2319C77.6962 35.3782 78.2759 34.4795 78.8218 33.5389C78.8548 33.4823 78.8878 33.4256 78.9218 33.3673C81.6035 28.7014 82.1268 22.924 80.7942 17.7597C80.0345 14.9343 78.6925 12.3286 76.8689 10.0533C76.8098 9.97777 76.7507 9.90224 76.6898 9.82441C75.716 8.61956 74.5794 7.44134 73.3244 6.53317C73.1929 6.43673 73.0647 6.33676 72.9366 6.23578C66.968 1.59218 58.5414 0.92654 47.4196 6.75432Z" fill="#D1B54D"/>
<path d="M56.0859 57.0254C57.4522 57.0254 58.8184 57.0254 60.226 57.0254C60.9383 58.9297 61.6488 60.8343 62.3449 62.7446C62.8277 64.0694 63.3136 65.3928 63.8039 66.7147C64.1012 67.5161 64.397 68.318 64.6914 69.1204C64.7613 69.3108 64.8312 69.5011 64.9011 69.6914C65.0032 69.9695 65.1052 70.2475 65.207 70.5257C65.5278 71.4021 65.8507 72.2773 66.1939 73.1451C66.2188 73.2083 66.2437 73.2716 66.2694 73.3368C66.6423 74.3034 66.6423 74.3034 67.4126 74.9342C67.7594 74.9342 67.942 74.7676 68.1937 74.5414C68.7859 73.7065 69.1322 72.7183 69.5046 71.772C69.5705 71.6065 69.6364 71.4409 69.7024 71.2754C69.8797 70.8303 70.056 70.3847 70.2321 69.9391C70.4166 69.473 70.6019 69.0073 70.7872 68.5415C71.0954 67.7664 71.4031 66.9911 71.7104 66.2157C72.1697 65.0567 72.6302 63.8983 73.0912 62.74C73.1276 62.6485 73.164 62.557 73.2015 62.4628C73.2376 62.3722 73.2736 62.2816 73.3107 62.1883C73.3465 62.0986 73.3822 62.0088 73.419 61.9163C73.49 61.7378 73.5611 61.5592 73.6321 61.3807C73.8732 60.775 74.1139 60.1691 74.3546 59.5633C74.4494 59.3246 74.5443 59.0858 74.6392 58.8471C74.6986 58.6974 74.7581 58.5477 74.8175 58.3979C74.8982 58.1946 74.979 57.9913 75.0598 57.788C75.0835 57.7283 75.1071 57.6686 75.1315 57.6071C75.2933 57.2004 75.2933 57.2004 75.3803 57.0254C76.695 57.0254 78.0097 57.0254 79.3642 57.0254C79.3642 64.4905 79.3642 71.9557 79.3642 79.647C78.0495 79.647 76.7348 79.647 75.3803 79.647C75.3545 73.3742 75.3288 67.1014 75.3022 60.6386C73.5302 65.0919 73.5302 65.0919 71.7698 69.5498C71.5329 70.152 71.2953 70.754 71.0575 71.3559C70.9962 71.5109 70.935 71.666 70.8737 71.8211C70.8536 71.872 70.8335 71.923 70.8127 71.9755C70.7723 72.078 70.7318 72.1804 70.6913 72.2829C70.5939 72.5296 70.4964 72.7762 70.3989 73.0229C70.0131 73.9981 69.6279 74.9732 69.2636 75.9568C68.8741 76.9996 68.4308 77.9954 67.7251 78.8615C67.675 78.9285 67.625 78.9954 67.5734 79.0644C67.2742 79.4178 66.8852 79.6745 66.4288 79.7664C65.87 79.7898 65.4825 79.6222 65.0551 79.2718C63.6621 77.9704 63.0068 75.9428 62.3742 74.1929C62.3114 74.0212 62.2486 73.8496 62.1857 73.678C62.0487 73.3041 61.9121 72.9301 61.7757 72.556C61.5411 71.9129 61.304 71.2706 61.0667 70.6285C61.0456 70.5714 61.0244 70.5142 61.0027 70.4553C60.9164 70.2221 60.8302 69.9888 60.7439 69.7555C60.6028 69.3739 60.4618 68.9921 60.3209 68.6104C59.4847 66.3449 58.6441 64.081 57.8045 61.8168C57.7787 67.7008 57.7529 73.5847 57.7264 79.647C57.185 79.647 56.6437 79.647 56.0859 79.647C56.0859 72.1819 56.0859 64.7167 56.0859 57.0254Z" fill="white"/>
<path d="M19.4585 59.6476C21.4217 61.4767 22.7492 64.1292 22.8941 66.844C22.8986 67.0156 22.9007 67.1871 22.9017 67.3588C22.9021 67.4225 22.9025 67.4861 22.903 67.5517C22.9037 67.6864 22.9043 67.8211 22.9046 67.9557C22.9053 68.1564 22.9077 68.3569 22.9102 68.5575C22.9179 69.7412 22.7968 70.9112 22.4366 72.0434C22.4165 72.1081 22.3964 72.1728 22.3757 72.2395C21.9156 73.6786 21.2157 74.9671 20.2299 76.1131C20.1773 76.1764 20.1248 76.2397 20.0706 76.3049C18.5875 78.0375 16.498 79.1584 14.2931 79.6477C14.2073 79.667 14.2073 79.667 14.1197 79.6867C12.3829 80.0565 10.3998 80.0366 8.66887 79.6477C8.61002 79.6347 8.55116 79.6216 8.49052 79.6082C6.80585 79.2189 5.21028 78.4331 3.90386 77.2913C3.83901 77.2356 3.77417 77.18 3.70735 77.1226C1.45596 75.1434 0.25218 72.2602 0.029106 69.2927C-0.153867 66.219 0.506353 62.9782 2.56433 60.6052C2.6714 60.4847 2.77961 60.3655 2.88837 60.2466C2.95009 60.178 3.01182 60.1095 3.07542 60.0388C7.25128 55.617 15.0342 55.7602 19.4585 59.6476ZM8.66887 58.5971C8.59798 58.633 8.52709 58.669 8.45406 58.706C6.63391 59.6902 5.23784 61.7609 4.63135 63.7188C3.96289 66.0231 3.72988 68.7333 4.29444 71.0861C4.31249 71.1636 4.33054 71.2412 4.34913 71.3211C4.95748 73.8853 6.01617 76.4662 8.33347 77.9231C9.81595 78.8075 11.5301 78.973 13.1852 78.5505C14.2447 78.2271 15.0668 77.6683 15.8554 76.8986C15.9081 76.8514 15.9608 76.8042 16.015 76.7556C17.8337 75.0692 18.7639 71.9171 18.9019 69.5151C18.9163 69.1043 18.9211 68.6939 18.9215 68.2829C18.9215 68.2256 18.9216 68.1682 18.9216 68.1092C18.9174 65.2135 18.2189 62.6027 16.4023 60.3251C16.3293 60.2322 16.3293 60.2322 16.2549 60.1373C15.2911 58.9752 13.8465 58.1242 12.3403 57.9687C11.0536 57.8796 9.82446 57.9767 8.66887 58.5971Z" fill="white"/>
<path d="M110.848 56.6328C110.899 56.6328 110.951 56.6328 111.004 56.6328C112.223 59.4029 113.438 62.1746 114.64 64.9518C115.131 66.0851 115.625 67.217 116.119 68.3486C116.178 68.4827 116.236 68.6168 116.295 68.7509C116.323 68.8162 116.352 68.8815 116.381 68.9488C116.668 69.6062 116.955 70.264 117.241 70.9219C117.57 71.6798 117.901 72.4372 118.231 73.1945C118.742 74.3631 119.252 75.5318 119.76 76.7015C119.816 76.8298 119.872 76.958 119.928 77.0862C120.006 77.2656 120.084 77.4451 120.162 77.6246C120.183 77.6745 120.205 77.7243 120.227 77.7757C120.496 78.3956 120.747 79.0216 121.003 79.6472C119.559 79.6472 118.116 79.6472 116.628 79.6472C116.242 78.74 115.855 77.8327 115.457 76.898C115.112 77.0367 114.844 77.1981 114.544 77.4086C111.965 79.1705 108.744 80.1929 105.602 79.7674C104.736 79.5933 103.98 79.1665 103.427 78.469C102.84 77.547 102.784 76.3731 102.969 75.3193C103.197 74.2777 103.619 73.292 104.052 72.3228C104.175 72.0466 104.297 71.7698 104.419 71.493C104.484 71.3462 104.549 71.1995 104.614 71.0527C104.946 70.3006 105.273 69.5457 105.599 68.7905C105.763 68.4097 105.927 68.0289 106.092 67.6482C106.14 67.5365 106.14 67.5365 106.189 67.4227C106.51 66.6813 106.831 65.9403 107.152 65.1994C107.179 65.1372 107.206 65.0749 107.234 65.0108C107.369 64.6993 107.504 64.3877 107.639 64.0761C107.804 63.6969 107.968 63.3176 108.132 62.9384C108.16 62.875 108.187 62.8116 108.216 62.7462C108.354 62.4282 108.491 62.1101 108.629 61.792C108.887 61.1979 109.144 60.6039 109.402 60.01C109.523 59.7318 109.644 59.4535 109.765 59.1753C109.822 59.0436 109.879 58.9119 109.936 58.7803C110.246 58.067 110.554 57.3529 110.848 56.6328ZM109.364 62.838C107.703 67.0602 107.703 67.0602 106.708 71.4783C106.7 71.5284 106.693 71.5786 106.685 71.6303C106.617 72.1581 106.612 72.6866 106.611 73.2184C106.61 73.3765 106.608 73.5344 106.605 73.6925C106.6 74.9479 106.812 76.0024 107.65 76.9618C108.191 77.4631 109.022 77.8511 109.754 77.9191C109.831 77.9264 109.908 77.9337 109.988 77.9412C111.713 78.0213 113.373 77.1973 114.675 76.1125C114.781 75.9831 114.886 75.8524 114.988 75.7198C114.176 73.8056 113.353 71.896 112.527 69.9879C112.254 69.3591 111.983 68.73 111.712 68.1007C111.672 68.0087 111.633 67.9168 111.592 67.822C111.514 67.6406 111.436 67.4592 111.358 67.2778C111.144 66.7813 110.93 66.2849 110.716 65.7885C110.695 65.7397 110.674 65.6908 110.652 65.6405C110.25 64.706 109.846 63.7719 109.442 62.838C109.416 62.838 109.39 62.838 109.364 62.838Z" fill="white"/>
<path d="M29.5312 57.0254C35.2282 57.0254 40.9251 57.0254 46.7946 57.0254C46.0841 58.4544 46.0841 58.4544 45.7352 59.0529C45.3673 59.6924 45.0072 60.3358 44.6514 60.9822C44.2881 61.6417 43.9228 62.2999 43.5529 62.9557C43.1848 63.6083 42.821 64.2632 42.4593 64.9194C42.0569 65.6492 41.6511 66.3769 41.2418 67.1028C40.9154 67.6823 40.5932 68.2642 40.272 68.8468C39.8677 69.5803 39.46 70.3118 39.0489 71.0415C38.6014 71.8359 38.1582 72.6326 37.715 73.4294C37.4869 73.8395 37.2586 74.2494 37.0303 74.6593C36.9401 74.8213 36.8498 74.9833 36.7596 75.1453C36.5682 75.4889 36.3768 75.8326 36.1854 76.1762C36.1364 76.2641 36.0874 76.3521 36.0369 76.4427C35.9438 76.6099 35.8506 76.7771 35.7574 76.9443C35.5038 77.3996 35.251 77.8554 34.9993 78.3117C36.0406 78.3233 37.0791 78.2914 38.1196 78.2535C38.4161 78.2427 38.7125 78.2323 39.009 78.2218C39.6383 78.1997 40.2676 78.1772 40.897 78.1546C41.6272 78.1284 42.3574 78.1024 43.0876 78.0768C43.3774 78.0665 43.6671 78.056 43.9568 78.0454C44.9035 78.0117 45.8473 77.9899 46.7946 77.9975C46.7946 78.5419 46.7946 79.0862 46.7946 79.647C41.0977 79.647 35.4008 79.647 29.5312 79.647C29.6369 79.3813 29.7374 79.1492 29.8721 78.9014C29.9086 78.8341 29.9452 78.7667 29.9828 78.6973C30.0223 78.6252 30.0618 78.553 30.1025 78.4786C30.1648 78.3642 30.1648 78.3642 30.2284 78.2475C30.5622 77.6367 30.9022 77.0296 31.2444 76.4235C31.5751 75.8373 31.9013 75.2487 32.2262 74.6593C32.6306 73.9257 33.0382 73.1942 33.4494 72.4645C33.8968 71.6701 34.34 70.8734 34.7832 70.0766C35.0113 69.6666 35.2397 69.2567 35.468 68.8468C35.5591 68.6831 35.6503 68.5195 35.7414 68.3558C37.1084 65.9012 37.1084 65.9012 38.4754 63.4466C38.5205 63.3656 38.5657 63.2846 38.6121 63.2011C38.7031 63.0377 38.7942 62.8743 38.8852 62.7109C39.1152 62.2981 39.345 61.8851 39.5745 61.4719C40.1527 60.4314 40.7368 59.3946 41.3266 58.3607C39.7619 58.3987 38.1975 58.4427 36.6333 58.4985C36.5608 58.501 36.4883 58.5036 36.4136 58.5063C35.7441 58.53 35.0747 58.554 34.4053 58.5785C32.7796 58.6379 31.1583 58.6899 29.5312 58.6749C29.5312 58.1306 29.5312 57.5862 29.5312 57.0254Z" fill="white"/>
<path d="M67.7958 16.1373C68.1999 16.3405 68.3517 16.6567 68.4948 17.0777C68.7057 17.9732 68.5484 18.9386 68.1046 19.7357C67.5354 20.5966 66.8369 21.1881 65.8411 21.4684C65.4793 21.5337 65.131 21.5538 64.7639 21.557C64.6719 21.5582 64.6719 21.5582 64.578 21.5595C63.5959 21.5452 62.6902 21.2391 61.7858 20.8796C61.6865 20.8409 61.5872 20.8023 61.4879 20.7639C61.0443 20.5917 60.6019 20.4163 60.1597 20.2405C59.5064 19.9825 58.8568 19.7454 58.1779 19.5639C58.1193 19.5482 58.0606 19.5325 58.0003 19.5164C56.0227 19.0169 54.0572 19.4166 52.3095 20.4181C50.1261 21.8082 49.0266 23.9502 48.4507 26.4156C48.4075 26.6438 48.378 26.8684 48.3549 27.0995C48.3394 27.2519 48.3394 27.2519 48.3235 27.4073C48.1028 29.9811 48.713 32.7993 50.3322 34.8512C50.4277 34.9645 50.5237 35.0774 50.6203 35.1899C50.6672 35.2528 50.7141 35.3157 50.7625 35.3804C51.3143 36.0358 52.0846 36.555 52.8856 36.8394C52.9362 36.8584 52.9869 36.8775 53.0391 36.8971C53.3841 37.0056 53.7178 37.0022 54.0778 36.9999C54.2256 36.9991 54.2256 36.9991 54.3764 36.9984C54.4515 36.9978 54.5267 36.9971 54.6041 36.9965C54.6048 36.8933 54.6054 36.7901 54.606 36.6838C54.6121 35.7085 54.619 34.7332 54.6266 33.7579C54.6305 33.2565 54.6341 32.7552 54.6371 32.2539C54.64 31.7695 54.6436 31.2852 54.6477 30.8008C54.6492 30.6166 54.6503 30.4323 54.6513 30.2481C54.6526 29.9889 54.6549 29.7297 54.6573 29.4705C54.6575 29.3953 54.6577 29.3201 54.6578 29.2426C54.6772 27.6468 54.6772 27.6468 55.229 27.0995C55.7498 26.6784 56.2644 26.6121 56.9122 26.592C57.1819 26.6283 57.1819 26.6283 58.0412 26.9424C58.0412 30.4936 58.0412 34.0447 58.0412 37.7034C50.1621 37.7034 50.1621 37.7034 47.449 34.9882C45.6465 33.1367 44.8974 30.6063 44.8984 28.0599C44.9219 25.9128 45.4751 23.6693 46.8707 21.994C46.9511 21.8955 46.9511 21.8955 47.0331 21.7951C48.7635 19.7673 51.3711 18.6849 53.9792 18.4593C56.4067 18.2978 58.5884 18.8529 60.7956 19.7983C63.4111 21.0005 63.4111 21.0005 66.1651 20.7372C66.7715 20.4248 67.1502 19.8583 67.4055 19.2341C67.6387 18.4256 67.4756 17.6839 67.0912 16.9544C66.9958 16.748 67.0321 16.6295 67.1025 16.4171C67.3003 16.164 67.4726 16.0878 67.7958 16.1373Z" fill="#D1B54D"/>
<path d="M62.9594 8.79637C63.5536 8.79084 64.1479 8.78669 64.7423 8.78417C65.0184 8.78295 65.2945 8.78131 65.5707 8.7786C68.6273 8.74939 71.2441 9.21851 73.5146 11.4375C75.2912 13.2334 76.0905 15.7218 76.112 18.2171C76.0972 20.3682 75.5913 22.5324 74.286 24.2702C74.2284 24.3483 74.1708 24.4263 74.1115 24.5068C72.5927 26.4557 70.0712 27.6291 67.6622 27.942C64.9124 28.2605 62.5038 27.6353 59.9959 26.5745C57.6646 25.4951 57.6646 25.4951 55.1967 25.576C54.4176 25.9446 53.9066 26.4706 53.5953 27.2844C53.3809 28.0283 53.5008 28.6825 53.8199 29.3758C53.8972 29.4924 53.8972 29.4924 53.9761 29.6114C53.9651 29.8788 53.9463 30.0288 53.7662 30.23C53.5243 30.3483 53.3831 30.362 53.1169 30.3183C52.6904 29.9992 52.5472 29.5916 52.4523 29.0858C52.3198 28.0218 52.6278 27.1042 53.224 26.2348C53.8553 25.4238 54.7799 25.0375 55.7728 24.8986C57.5862 24.7587 59.2857 25.5814 60.9235 26.2535C62.8804 27.0563 65.0431 27.5152 67.0994 26.7837C67.1493 26.7665 67.1992 26.7492 67.2505 26.7314C69.1922 26.0498 70.7086 24.6178 71.6301 22.7778C72.887 20.0891 73.0519 17.0704 72.0959 14.2493C72.003 13.9975 71.8987 13.7528 71.7863 13.5092C71.7614 13.455 71.7364 13.4008 71.7107 13.345C70.9601 11.7536 69.8784 10.4271 68.2712 9.66039C67.8688 9.52012 67.4962 9.47305 67.075 9.45421C67.0192 9.45117 66.9634 9.44813 66.9058 9.445C66.7099 9.43461 66.5145 9.42475 66.3183 9.42475C66.3186 9.52795 66.319 9.63115 66.3193 9.73748C66.3225 10.7128 66.3249 11.6881 66.3264 12.6634C66.3272 13.1647 66.3283 13.6661 66.3301 14.1674C66.3318 14.6517 66.3327 15.1361 66.3331 15.6204C66.3334 15.8047 66.334 15.9889 66.3348 16.1732C66.336 16.4324 66.3361 16.6916 66.336 16.9508C66.3366 17.026 66.3372 17.1012 66.3377 17.1787C66.3353 17.9844 66.3088 18.7712 65.726 19.3702C65.2793 19.7655 64.7932 19.8515 64.2092 19.8715C63.7443 19.8368 63.3381 19.7654 62.9594 19.4788C62.9113 19.283 62.9113 19.283 62.9124 19.0449C62.9119 18.9547 62.9113 18.8645 62.9108 18.7716C62.9122 18.6725 62.9136 18.5735 62.915 18.4714C62.9151 18.3662 62.9151 18.2609 62.9148 18.1556C62.9147 17.8696 62.917 17.5838 62.9198 17.2978C62.9222 16.9991 62.9224 16.7003 62.9229 16.4015C62.9241 15.8357 62.9273 15.2699 62.9312 14.7041C62.9356 14.0599 62.9377 13.4158 62.9397 12.7717C62.9438 11.4465 62.9507 10.1215 62.9594 8.79637Z" fill="#D1B54D"/>
<path d="M89.5234 57.0254C90.8639 57.0254 92.2043 57.0254 93.5854 57.0254C93.5854 64.4905 93.5854 71.9557 93.5854 79.647C92.245 79.647 90.9045 79.647 89.5234 79.647C89.5234 72.1819 89.5234 64.7167 89.5234 57.0254Z" fill="white"/>
<path d="M91.3196 43.75C91.5008 44.0233 91.5117 44.2388 91.5393 44.5551C91.6917 45.9726 92.2731 47.2322 93.3857 48.1493C93.5778 48.2894 93.7727 48.4175 93.9755 48.5414C94.0337 48.5776 94.0919 48.6139 94.1519 48.6512C95.0077 49.1325 96.0543 49.2894 97.022 49.3269C97.022 49.3528 97.022 49.3787 97.022 49.4054C96.9788 49.4101 96.9357 49.4147 96.8912 49.4196C95.2631 49.6037 93.7247 49.9837 92.635 51.3203C91.927 52.3346 91.5457 53.4217 91.4972 54.665C91.4758 54.8252 91.4758 54.8252 91.3196 54.9823C91.3119 54.892 91.3043 54.8018 91.2964 54.7089C91.1614 53.2471 90.7921 51.8513 89.6792 50.8193C88.5251 49.8779 87.2234 49.5493 85.7734 49.4054C85.7734 49.3795 85.7734 49.3536 85.7734 49.3269C85.8632 49.3192 85.9529 49.3115 86.0453 49.3035C87.6553 49.1533 89.0166 48.6872 90.1274 47.4472C90.9739 46.3871 91.2742 45.0816 91.3196 43.75Z" fill="white"/>
<path d="M73.2734 87.8945C73.6502 87.9892 73.728 88.1378 73.9219 88.4487C73.9687 88.5213 73.9687 88.5213 74.0164 88.5953C74.1163 88.7506 74.2148 88.9068 74.3133 89.0629C74.3787 89.165 74.4442 89.2671 74.5097 89.3691C74.754 89.7503 74.9971 90.1319 75.2337 90.518C75.2823 90.5969 75.3309 90.6759 75.381 90.7572C75.4231 90.8267 75.4652 90.8962 75.5086 90.9677C75.5443 91.0163 75.5801 91.0649 75.6169 91.115C75.6684 91.115 75.72 91.115 75.7731 91.115C75.8908 90.9422 75.9987 90.7694 76.1051 90.5897C76.4365 90.043 76.7814 89.5068 77.1352 88.9746C77.1823 88.9035 77.2294 88.8325 77.278 88.7593C77.5289 88.3823 77.5289 88.3823 77.6479 88.2087C77.7059 88.1202 77.7059 88.1202 77.7651 88.0299C77.8231 87.9629 77.8231 87.9629 77.8822 87.8945C77.9596 87.8945 78.0369 87.8945 78.1166 87.8945C78.1166 89.5535 78.1166 91.2124 78.1166 92.9216C77.8072 92.9216 77.4979 92.9216 77.1792 92.9216C77.1534 92.1958 77.1276 91.47 77.1011 90.7222C76.7225 91.332 76.7225 91.332 76.3439 91.9418C76.2967 92.0178 76.2495 92.0937 76.2009 92.172C76.1526 92.2497 76.1044 92.3275 76.0546 92.4076C75.9628 92.554 75.8686 92.699 75.7731 92.843C75.4739 92.7427 75.4411 92.6389 75.2822 92.3699C75.2343 92.2897 75.1864 92.2095 75.1371 92.1269C75.0876 92.0424 75.0381 91.958 74.9871 91.871C74.8885 91.7051 74.79 91.5392 74.6914 91.3733C74.6479 91.2994 74.6044 91.2254 74.5596 91.1492C74.4731 91.0046 74.382 90.8627 74.2889 90.7222C74.2632 91.448 74.2374 92.1738 74.2108 92.9216C73.9015 92.9216 73.5921 92.9216 73.2734 92.9216C73.2734 91.2626 73.2734 89.6037 73.2734 87.8945Z" fill="white"/>
<path d="M20.9356 88.445C21.0799 88.5782 21.0799 88.5782 21.1699 88.6806C21.0657 88.9629 20.9387 89.2112 20.7794 89.4661C20.5779 89.3689 20.3857 89.2613 20.1935 89.147C19.8111 88.9279 19.5063 88.8789 19.0608 88.9163C18.579 89.0718 18.2472 89.3604 17.9672 89.7803C17.8238 90.2128 17.7997 90.7179 17.9599 91.149C18.2055 91.5694 18.5188 91.8241 18.9827 91.9796C19.4844 92.0208 19.8714 92.0158 20.3107 91.744C20.3622 91.744 20.4138 91.744 20.4669 91.744C20.5007 91.6565 20.5007 91.6565 20.5352 91.5672C20.6086 91.387 20.6927 91.2112 20.7794 91.037C20.2896 91.037 19.7998 91.037 19.2952 91.037C19.2952 90.7519 19.2952 90.4668 19.2952 90.173C20.0943 90.173 20.8934 90.173 21.7167 90.173C21.7167 91.0548 21.6968 91.753 21.0796 92.4116C20.4498 92.9268 19.7718 93.0567 18.9827 93.0007C18.3093 92.8909 17.7861 92.5713 17.356 92.0388C16.8894 91.3652 16.8022 90.7505 16.8736 89.9374C17.0418 89.2358 17.4235 88.6514 18.0258 88.2584C19.0402 87.6981 19.9732 87.8529 20.9356 88.445Z" fill="white"/>
<path d="M27.9742 88.408C28.5809 88.9075 28.915 89.4789 28.9943 90.2628C29.0269 91.0417 28.7617 91.6779 28.2546 92.2587C27.6524 92.7954 27.0471 93.0432 26.2355 93.0242C25.4137 92.9364 24.8878 92.5308 24.344 91.9396C23.927 91.3184 23.8077 90.6608 23.9449 89.9323C24.1306 89.2108 24.4623 88.6846 25.0751 88.2531C26.0123 87.7386 27.1036 87.7843 27.9742 88.408ZM25.0861 89.5663C24.8175 89.9563 24.7761 90.3364 24.8371 90.8007C25.0076 91.3652 25.3844 91.7187 25.8819 92.0083C26.3839 92.1285 26.8161 92.105 27.2699 91.8482C27.6253 91.5909 27.937 91.2346 28.0398 90.8007C28.1026 90.2881 28.0291 89.8881 27.7273 89.4654C27.3423 89.0426 26.9799 88.8631 26.4091 88.8075C25.8353 88.8262 25.4299 89.122 25.0861 89.5663Z" fill="white"/>
<path d="M84.7036 88.4782C85.2573 89.005 85.5433 89.6784 85.5708 90.433C85.5504 91.17 85.3437 91.7786 84.8327 92.3157C84.2648 92.8093 83.5978 93.0392 82.8505 93.0198C82.0806 92.9469 81.557 92.6192 81.0255 92.0726C80.5256 91.3606 80.4543 90.7123 80.5372 89.8586C80.6624 89.2918 80.9525 88.8164 81.3965 88.4447C82.4618 87.7848 83.6719 87.6895 84.7036 88.4782ZM81.7968 89.3677C81.491 89.838 81.339 90.222 81.4301 90.788C81.5608 91.2878 81.8452 91.606 82.2558 91.9008C82.6184 92.1135 83.0197 92.1068 83.4275 92.0579C83.9501 91.9115 84.2498 91.5751 84.5211 91.1154C84.668 90.6722 84.6602 90.1899 84.5065 89.7506C84.2012 89.3061 83.8565 89.0147 83.3494 88.8375C82.7357 88.7591 82.2446 88.937 81.7968 89.3677Z" fill="white"/>
<path d="M36.7109 87.9727C39.2182 87.9727 39.2182 87.9727 39.9918 88.601C40.5705 89.2071 40.7022 89.8983 40.6948 90.7218C40.588 91.478 40.3377 92.0172 39.7467 92.5032C38.8556 93.1382 37.7582 92.9211 36.7109 92.9211C36.7109 91.2881 36.7109 89.6551 36.7109 87.9727ZM37.6483 88.9152C37.6483 89.9261 37.6483 90.937 37.6483 91.9786C38.553 92.0293 38.553 92.0293 39.2887 91.6644C39.6768 91.2429 39.7874 90.8474 39.7791 90.28C39.7298 89.8557 39.5314 89.52 39.2155 89.2392C38.6538 88.8473 38.3954 88.9152 37.6483 88.9152Z" fill="white"/>
<path d="M87.9609 87.8945C88.2532 88.0415 88.4005 88.1601 88.6264 88.3885C88.6935 88.4561 88.7605 88.5236 88.8295 88.5932C88.8989 88.6639 88.9684 88.7347 89.0399 88.8076C89.1084 88.8766 89.1769 88.9455 89.2475 89.0166C89.5904 89.3637 89.9246 89.7137 90.2375 90.0884C90.4579 90.3355 90.6959 90.5661 90.9293 90.8008C90.9551 89.8676 90.9809 88.9345 91.0074 87.9731C91.3168 87.9731 91.6261 87.9731 91.9448 87.9731C91.9448 89.632 91.9448 91.2909 91.9448 93.0001C91.6352 92.9223 91.5789 92.8973 91.3736 92.681C91.3015 92.6055 91.3015 92.6055 91.228 92.5285C91.0993 92.3869 90.9748 92.2429 90.8512 92.0968C90.5191 91.708 90.1538 91.3523 89.7902 90.9936C89.7414 90.9452 89.6926 90.8967 89.6422 90.8468C89.5987 90.8039 89.5551 90.761 89.5102 90.7168C89.3225 90.518 89.1509 90.3044 88.9764 90.0939C88.9507 91.027 88.9249 91.9601 88.8983 92.9216C88.589 92.9216 88.2796 92.9216 87.9609 92.9216C87.9609 91.2626 87.9609 89.6037 87.9609 87.8945Z" fill="white"/>
<path d="M48.8987 87.9511C49.2056 88.1126 49.4246 88.304 49.6029 88.6006C49.6615 88.9001 49.6615 88.9001 49.6811 89.1504C49.3975 89.1764 49.1139 89.2023 48.8218 89.229C48.7702 89.0994 48.7187 88.9698 48.6656 88.8362C48.4593 88.8362 48.2531 88.8362 48.0406 88.8362C47.9906 89.3893 48.1123 89.7207 48.4312 90.1715C48.5934 90.3645 48.7597 90.5506 48.9332 90.7333C49.0561 90.8785 49.0561 90.8785 49.0561 91.0356C49.1335 91.0615 49.2108 91.0874 49.2905 91.1141C49.342 90.8808 49.3936 90.6475 49.4467 90.4072C49.7303 90.4072 50.0138 90.4072 50.306 90.4072C50.3219 90.9113 50.2732 91.3322 50.1497 91.821C50.4977 91.9766 50.4977 91.9766 50.8528 92.1352C50.8528 92.3944 50.8528 92.6536 50.8528 92.9207C50.2058 92.8714 50.2058 92.8714 49.8959 92.7096C49.6906 92.5825 49.6906 92.5825 49.4955 92.6556C49.394 92.7091 49.394 92.7091 49.2905 92.7636C48.6951 93.032 48.111 93.1118 47.4743 92.9207C47.1059 92.7618 46.8597 92.4607 46.6346 92.1352C46.4912 91.7029 46.4611 91.1903 46.6355 90.7637C46.7656 90.5523 46.8923 90.3752 47.0816 90.2142C47.2 90.0994 47.2 90.0994 47.1673 89.9402C47.1494 89.8837 47.1315 89.8272 47.113 89.769C46.9857 89.2767 47.0087 88.8807 47.2253 88.419C47.6609 87.936 48.2701 87.7184 48.8987 87.9511ZM47.5231 90.9227C47.3727 91.1908 47.3734 91.3605 47.4157 91.6639C47.617 91.9461 47.7455 92.0403 48.0797 92.1303C48.3513 92.1352 48.5047 92.1019 48.7437 91.9781C48.636 91.7325 48.5123 91.573 48.3189 91.389C48.1626 91.2373 48.0291 91.0985 47.8991 90.9227C47.8531 90.8619 47.8531 90.8619 47.8063 90.7999C47.6395 90.7818 47.6395 90.7818 47.5231 90.9227Z" fill="white"/>
<path d="M94.5938 87.9727C97.1092 87.9727 97.1092 87.9727 97.8093 88.594C98.36 89.1649 98.5056 89.6983 98.5337 90.4813C98.519 91.0976 98.3824 91.6613 98.0162 92.1651C97.0352 93.0858 95.9313 92.9211 94.5938 92.9211C94.5938 91.2881 94.5938 89.6551 94.5938 87.9727ZM95.453 88.9152C95.453 89.9261 95.453 90.937 95.453 91.9786C96.4423 92.0349 96.4423 92.0349 97.1715 91.5858C97.575 91.1489 97.5941 90.7747 97.589 90.1959C97.5502 89.8208 97.4271 89.5804 97.1715 89.308C96.5943 88.846 96.2356 88.9152 95.453 88.9152Z" fill="white"/>
<path d="M56.8672 87.9727C59.4072 87.9727 59.4072 87.9727 60.2066 88.6845C60.7192 89.2436 60.8194 89.9168 60.8099 90.6547C60.7809 91.3145 60.5741 91.8517 60.1242 92.3348C59.2263 93.1149 57.9666 92.9211 56.8672 92.9211C56.8672 91.2881 56.8672 89.6551 56.8672 87.9727ZM57.7265 88.9152C57.7265 89.9261 57.7265 90.937 57.7265 91.9786C58.6926 92.044 58.6926 92.044 59.4316 91.6217C59.7766 91.2205 59.9285 90.8871 59.9039 90.3521C59.8371 89.8407 59.6987 89.4739 59.2887 89.1509C58.7888 88.8378 58.3279 88.9152 57.7265 88.9152Z" fill="white"/>
<path d="M68.5857 87.8945C68.663 87.8945 68.7403 87.8945 68.82 87.8945C69.426 89.185 70.0272 90.4773 70.6118 91.7777C70.6358 91.8312 70.6599 91.8846 70.6847 91.9397C70.7524 92.0901 70.8199 92.2405 70.8873 92.3911C70.9257 92.4767 70.964 92.5623 71.0035 92.6505C71.0853 92.843 71.0853 92.843 71.0853 92.9216C70.7502 92.9216 70.4151 92.9216 70.0698 92.9216C69.9667 92.7142 69.8636 92.5068 69.7574 92.2932C69.0614 92.2932 68.3654 92.2932 67.6483 92.2932C67.5452 92.5005 67.4421 92.7079 67.3358 92.9216C67.0265 92.9216 66.7171 92.9216 66.3984 92.9216C66.4536 92.644 66.4905 92.4708 66.6033 92.228C66.6292 92.1717 66.6551 92.1154 66.6818 92.0574C66.7099 91.9974 66.7381 91.9374 66.767 91.8756C66.8109 91.7807 66.8109 91.7807 66.8556 91.6838C66.9502 91.4793 67.0454 91.275 67.1405 91.0708C67.2372 90.862 67.3337 90.6532 67.4303 90.4443C67.4936 90.3073 67.557 90.1703 67.6204 90.0333C67.858 89.52 68.092 89.0053 68.322 88.4885C68.3501 88.4256 68.3781 88.3626 68.407 88.2977C68.4667 88.1634 68.5262 88.029 68.5857 87.8945ZM68.6638 89.8582C68.5591 90.0904 68.4552 90.3228 68.3513 90.5553C68.3215 90.6214 68.2917 90.6876 68.261 90.7557C68.2328 90.819 68.2046 90.8822 68.1756 90.9474C68.1494 91.0059 68.1232 91.0643 68.0962 91.1244C68.0294 91.27 68.0294 91.27 68.0389 91.4292C68.4771 91.4292 68.9153 91.4292 69.3668 91.4292C69.3115 91.1513 69.2762 90.9817 69.1614 90.7403C69.137 90.6884 69.1126 90.6366 69.0875 90.5831C69.062 90.5302 69.0366 90.4773 69.0104 90.4228C68.9847 90.3683 68.9589 90.3139 68.9324 90.2579C68.8693 90.1245 68.8057 89.9913 68.7419 89.8582C68.7161 89.8582 68.6903 89.8582 68.6638 89.8582Z" fill="white"/>
<path d="M103.609 88.2551C103.78 88.4055 103.885 88.5451 103.968 88.7577C103.864 89.0719 103.695 89.1377 103.422 89.3075C103.248 89.2264 103.114 89.1546 102.972 89.0228C102.713 88.8632 102.468 88.8567 102.172 88.9148C101.976 89.0588 101.976 89.0588 101.859 89.229C101.886 89.4193 101.886 89.4193 102.015 89.6217C102.243 89.7621 102.487 89.8582 102.733 89.9604C103.349 90.2329 103.814 90.4888 104.125 91.1141C104.168 91.5817 104.167 91.976 103.89 92.3708C103.452 92.8447 103.023 92.9996 102.382 93.0287C101.861 93.0165 101.403 92.8952 101.001 92.5528C100.768 92.3022 100.768 92.3022 100.688 92.1352C100.7 91.972 100.7 91.972 100.766 91.821C101.005 91.6443 101.005 91.6443 101.234 91.5068C101.432 91.5987 101.581 91.6915 101.752 91.8308C102.105 92.0284 102.4 92.0549 102.797 91.9781C103.054 91.824 103.054 91.824 103.187 91.5854C103.214 91.3723 103.214 91.3723 103.109 91.1926C102.98 91.1367 102.85 91.0854 102.718 91.0355C102.496 90.9314 102.278 90.8194 102.059 90.7066C102.002 90.6782 101.944 90.6498 101.885 90.6206C101.479 90.4101 101.166 90.1729 100.922 89.7788C100.823 89.3898 100.864 88.9735 101.039 88.6104C101.276 88.2581 101.644 88.0295 102.048 87.9219C102.619 87.8419 103.136 87.9171 103.609 88.2551Z" fill="white"/>
<path d="M31.3984 87.9727C31.682 87.9727 31.9656 87.9727 32.2577 87.9727C32.2577 89.2946 32.2577 90.6166 32.2577 91.9786C32.9537 91.9786 33.6497 91.9786 34.3668 91.9786C34.3668 92.2896 34.3668 92.6007 34.3668 92.9211C33.3872 92.9211 32.4077 92.9211 31.3984 92.9211C31.3984 91.2881 31.3984 89.6551 31.3984 87.9727Z" fill="white"/>
<path d="M60.4606 20.5801C60.4864 20.5801 60.5122 20.5801 60.5387 20.5801C60.5511 20.6522 60.5635 20.7243 60.5762 20.7985C60.7258 21.5896 60.9159 22.1649 61.553 22.676C62.0359 22.9931 62.5471 23.1297 63.1165 23.1721C62.9025 23.2899 62.722 23.3507 62.4818 23.3881C61.8444 23.5254 61.3096 23.8685 60.9433 24.4126C60.6938 24.882 60.5954 25.3967 60.5387 25.9213C60.5129 25.9213 60.4872 25.9213 60.4606 25.9213C60.4491 25.851 60.4376 25.7808 60.4258 25.7084C60.278 24.9069 60.092 24.2421 59.4012 23.7612C59.019 23.5256 58.6515 23.3943 58.2099 23.3194C58.1337 23.3063 58.0575 23.2931 57.9789 23.2795C57.8927 23.2653 57.8927 23.2653 57.8047 23.2507C57.8047 23.2248 57.8047 23.1988 57.8047 23.1721C57.8633 23.1654 57.9219 23.1586 57.9823 23.1516C58.8004 23.0387 59.4358 22.8186 59.9608 22.1532C60.2924 21.6698 60.3737 21.1487 60.4606 20.5801Z" fill="#D1B54D"/>
<path d="M63.1953 87.9727C63.5046 87.9727 63.814 87.9727 64.1327 87.9727C64.1327 89.6057 64.1327 91.2387 64.1327 92.9211C63.8234 92.9211 63.514 92.9211 63.1953 92.9211C63.1953 91.2881 63.1953 89.6551 63.1953 87.9727Z" fill="white"/>
</g>
<defs>
<clipPath id="clip0_101_3613">
<rect width="121" height="93" fill="white"/>
</clipPath>
</defs>
</svg>
