<svg width="148" height="113" viewBox="0 0 148 113" fill="none" xmlns="http://www.w3.org/2000/svg">
<rect width="148" height="112.858" fill="white"/>
<g clip-path="url(#clip0_101_3420)">
<path d="M91.8154 11.9476C91.8589 11.9833 91.9024 12.0189 91.9472 12.0556C93.129 13.0293 94.2717 14.1065 95.198 15.3288C95.2784 15.4314 95.3588 15.534 95.4393 15.6365C99.255 20.5228 100.957 26.6584 100.271 32.8174C99.9801 35.1328 99.3617 37.3355 98.4234 39.4684C98.3956 39.532 98.3679 39.5956 98.3393 39.6611C97.3746 41.8483 96.0287 43.8119 94.4209 45.5749C94.2692 45.7422 94.1211 45.912 93.9738 46.0832C93.504 46.621 92.9916 47.1088 92.4447 47.5674C92.4021 47.6031 92.3595 47.6389 92.3157 47.6758C91.1702 48.6341 89.9747 49.5129 88.6687 50.2408C88.604 50.2769 88.5394 50.313 88.4728 50.3501C85.7496 51.8533 82.794 52.804 79.7006 53.1502C79.6104 53.1613 79.6104 53.1613 79.5184 53.1726C78.7544 53.2561 77.9853 53.248 77.2177 53.2484C77.1424 53.2485 77.0671 53.2485 76.9896 53.2486C75.7795 53.2472 74.6027 53.1953 73.4073 52.9929C73.3274 52.9798 73.2475 52.9667 73.1652 52.9533C68.7556 52.2116 64.7408 50.1731 61.4499 47.1742C61.3139 47.053 61.1779 46.9317 61.0418 46.8105C60.5114 46.3326 60.0215 45.8334 59.5619 45.2871C59.526 45.2444 59.4901 45.2017 59.4531 45.1578C56.543 41.6826 54.6889 37.5957 54.0552 33.0993C54.046 33.0357 54.0368 32.9721 54.0273 32.9065C53.7612 30.98 53.7746 28.8897 54.0552 26.9661C54.0653 26.8959 54.0755 26.8256 54.0859 26.7533C54.6818 22.7664 56.2228 18.8697 58.7752 15.7219C58.8323 15.6498 58.8894 15.5776 58.9482 15.5032C59.9838 14.2098 61.1583 12.9587 62.4726 11.9476C62.5738 11.8678 62.675 11.788 62.7762 11.7081C68.7357 7.03793 76.5332 5.64347 91.8154 11.9476ZM63.9672 13.5203C63.8913 13.58 63.8153 13.6397 63.7371 13.7012C63.1445 14.1829 62.6009 14.7122 62.0596 15.2501C61.987 15.322 61.9144 15.3938 61.8396 15.4678C60.6339 16.6785 59.6035 18.0808 58.7752 19.5748C58.7388 19.6402 58.7024 19.7055 58.6649 19.7728C55.9915 24.6172 55.2358 30.4075 56.7769 35.7479C57.5294 38.2407 58.6408 40.5225 60.1912 42.6136C60.227 42.662 60.2628 42.7103 60.2997 42.7601C60.8675 43.5201 61.4993 44.2119 62.1579 44.8939C62.2287 44.9679 62.2995 45.0419 62.3724 45.1181C62.8231 45.5801 63.3037 45.9881 63.8099 46.3879C63.8942 46.4565 63.9784 46.5252 64.0625 46.594C67.095 49.0528 70.8737 50.5819 74.7446 51.0271C74.7987 51.0344 74.8527 51.0417 74.9084 51.0492C75.6269 51.1367 76.3525 51.1249 77.0751 51.1254C77.1831 51.1255 77.1831 51.1255 77.2932 51.1256C78.4258 51.1242 79.5286 51.0771 80.6446 50.8699C80.7535 50.8502 80.7535 50.8502 80.8645 50.8302C82.7572 50.4797 84.5727 49.8907 86.3087 49.0614C86.3736 49.0304 86.4385 48.9994 86.5055 48.9674C87.9284 48.2771 89.2538 47.3871 90.478 46.3879C90.5419 46.3361 90.5419 46.3361 90.607 46.2832C91.6863 45.4012 92.6958 44.4275 93.546 43.3213C93.6239 43.2239 93.7019 43.1265 93.7799 43.0292C94.4579 42.1746 95.0416 41.2749 95.5914 40.3333C95.6246 40.2766 95.6579 40.2199 95.6921 40.1615C98.3928 35.4906 98.9198 29.7071 97.5778 24.5373C96.8127 21.7089 95.4612 19.1005 93.6247 16.8227C93.5652 16.7471 93.5057 16.6715 93.4443 16.5936C92.4637 15.3875 91.319 14.208 90.0551 13.2989C89.9227 13.2023 89.7936 13.1023 89.6646 13.0012C83.6539 8.35264 75.1677 7.68629 63.9672 13.5203Z" fill="#D1B54D"/>
<path d="M72.7031 63.8438C74.079 63.8438 75.4549 63.8438 76.8725 63.8438C77.5898 65.75 78.3053 67.6567 79.0063 69.5691C79.4925 70.8952 79.9818 72.2201 80.4757 73.5434C80.775 74.3456 81.0729 75.1484 81.3694 75.9517C81.4398 76.1422 81.5102 76.3327 81.5806 76.5232C81.6834 76.8016 81.7862 77.0799 81.8887 77.3584C82.2117 78.2357 82.5369 79.1118 82.8825 79.9806C82.9076 80.0439 82.9327 80.1072 82.9585 80.1725C83.3341 81.1402 83.3341 81.1402 84.1098 81.7716C84.4591 81.7716 84.643 81.6048 84.8965 81.3784C85.4928 80.5426 85.8415 79.5533 86.2166 78.6061C86.283 78.4403 86.3494 78.2746 86.4158 78.1089C86.5944 77.6633 86.7719 77.2173 86.9493 76.7712C87.135 76.3046 87.3217 75.8383 87.5083 75.3721C87.8187 74.5962 88.1285 73.8201 88.438 73.0438C88.9005 71.8836 89.3644 70.724 89.8286 69.5644C89.8652 69.4729 89.9019 69.3813 89.9397 69.2869C89.976 69.1962 90.0123 69.1056 90.0497 69.0122C90.0856 68.9223 90.1216 68.8324 90.1587 68.7399C90.2302 68.5611 90.3018 68.3824 90.3733 68.2037C90.6161 67.5973 90.8585 66.9908 91.1009 66.3843C91.1964 66.1454 91.2919 65.9064 91.3875 65.6674C91.4474 65.5175 91.5073 65.3676 91.5671 65.2177C91.6484 65.0142 91.7297 64.8107 91.8111 64.6072C91.8349 64.5474 91.8588 64.4876 91.8833 64.4261C92.0463 64.0189 92.0463 64.0189 92.1339 63.8438C93.4578 63.8438 94.7818 63.8438 96.1459 63.8438C96.1459 71.3168 96.1459 78.7899 96.1459 86.4894C94.8219 86.4894 93.498 86.4894 92.1339 86.4894C92.1079 80.21 92.082 73.9305 92.0552 67.4608C90.2707 71.9188 90.2707 71.9188 88.4979 76.3815C88.2593 76.9843 88.02 77.5869 87.7805 78.1894C87.7188 78.3447 87.6571 78.4999 87.5954 78.6552C87.5752 78.7062 87.5549 78.7572 87.534 78.8097C87.4933 78.9123 87.4525 79.0149 87.4118 79.1174C87.3136 79.3644 87.2155 79.6113 87.1172 79.8582C86.7287 80.8345 86.3408 81.8106 85.9739 82.7952C85.5817 83.8391 85.1352 84.8361 84.4245 85.7031C84.3741 85.7701 84.3237 85.8371 84.2718 85.9061C83.9704 86.2599 83.5787 86.5169 83.1191 86.6089C82.5564 86.6323 82.1661 86.4646 81.7357 86.1138C80.3329 84.811 79.6729 82.7812 79.0358 81.0295C78.9726 80.8577 78.9094 80.6859 78.846 80.5141C78.708 80.1398 78.5705 79.7654 78.4331 79.3909C78.1968 78.747 77.9581 78.1041 77.7191 77.4613C77.6978 77.4041 77.6765 77.3469 77.6546 77.288C77.5678 77.0544 77.4809 76.8209 77.394 76.5874C77.2519 76.2053 77.1099 75.8232 76.968 75.441C76.1259 73.1731 75.2794 70.9069 74.4338 68.6402C74.4078 74.5305 74.3819 80.4207 74.3551 86.4894C73.81 86.4894 73.2648 86.4894 72.7031 86.4894C72.7031 79.0163 72.7031 71.5433 72.7031 63.8438Z" fill="#004A25"/>
<path d="M35.8148 66.4681C37.7919 68.2991 39.1287 70.9545 39.2747 73.6721C39.2792 73.8439 39.2813 74.0156 39.2823 74.1875C39.2827 74.2512 39.2832 74.3149 39.2836 74.3806C39.2844 74.5154 39.2849 74.6502 39.2852 74.7851C39.2859 74.9859 39.2884 75.1867 39.2909 75.3875C39.2986 76.5724 39.1766 77.7437 38.814 78.877C38.7937 78.9418 38.7734 79.0066 38.7526 79.0734C38.2892 80.5139 37.5844 81.8038 36.5916 82.9511C36.5387 83.0144 36.4857 83.0778 36.4312 83.1431C34.9377 84.8775 32.8333 85.9997 30.6129 86.4895C30.5264 86.5088 30.5264 86.5088 30.4382 86.5285C28.6891 86.8986 26.6921 86.8787 24.9489 86.4895C24.8896 86.4764 24.8303 86.4633 24.7693 86.4499C23.0727 86.0602 21.4659 85.2735 20.1502 84.1306C20.0849 84.0748 20.0196 84.0191 19.9523 83.9616C17.685 81.9804 16.4727 79.0941 16.2481 76.1234C16.0638 73.0464 16.7287 69.8022 18.8012 67.4267C18.909 67.3061 19.018 67.1867 19.1275 67.0677C19.1897 66.9991 19.2519 66.9304 19.3159 66.8597C23.5213 62.4332 31.3592 62.5765 35.8148 66.4681ZM24.9489 65.4164C24.8775 65.4524 24.8061 65.4884 24.7326 65.5255C22.8995 66.5107 21.4936 68.5837 20.8828 70.5436C20.2096 72.8504 19.975 75.5634 20.5435 77.9187C20.5617 77.9964 20.5799 78.074 20.5986 78.154C21.2113 80.7209 22.2774 83.3045 24.6111 84.763C26.1041 85.6484 27.8303 85.814 29.4971 85.3911C30.5641 85.0673 31.3921 84.5079 32.1863 83.7374C32.2393 83.6902 32.2923 83.6429 32.347 83.5943C34.1785 81.9061 35.1153 78.7506 35.2543 76.3461C35.2687 75.9349 35.2736 75.524 35.2739 75.1126C35.274 75.0552 35.274 74.9978 35.2741 74.9386C35.2699 72.0399 34.5664 69.4263 32.7369 67.1463C32.6635 67.0533 32.6635 67.0533 32.5885 66.9583C31.6179 65.795 30.1631 64.9431 28.6462 64.7874C27.3505 64.6982 26.1126 64.7954 24.9489 65.4164Z" fill="#004A25"/>
<path d="M127.849 63.4502C127.901 63.4502 127.953 63.4502 128.007 63.4502C129.234 66.2232 130.458 68.9979 131.669 71.7781C132.163 72.9125 132.66 74.0457 133.158 75.1785C133.217 75.3127 133.276 75.4469 133.335 75.5811C133.364 75.6465 133.392 75.7119 133.422 75.7793C133.711 76.4374 133.999 77.0959 134.287 77.7544C134.619 78.5131 134.952 79.2714 135.285 80.0295C135.799 81.1993 136.313 82.3693 136.825 83.5402C136.881 83.6686 136.937 83.7969 136.993 83.9253C137.072 84.1049 137.151 84.2846 137.229 84.4643C137.251 84.5142 137.273 84.5641 137.295 84.6156C137.566 85.2361 137.818 85.8628 138.076 86.489C136.622 86.489 135.169 86.489 133.671 86.489C133.281 85.5808 132.892 84.6726 132.491 83.7369C132.144 83.8758 131.874 84.0373 131.571 84.248C128.974 86.0119 125.73 87.0354 122.567 86.6094C121.695 86.4351 120.933 86.0078 120.376 85.3095C119.785 84.3866 119.729 83.2115 119.915 82.1565C120.144 81.1138 120.569 80.1271 121.006 79.1569C121.13 78.8804 121.253 78.6032 121.376 78.3262C121.441 78.1792 121.506 78.0323 121.571 77.8854C121.906 77.1325 122.235 76.3768 122.563 75.6208C122.729 75.2396 122.894 74.8584 123.06 74.4772C123.109 74.3655 123.109 74.3655 123.158 74.2515C123.481 73.5093 123.804 72.7676 124.128 72.0259C124.155 71.9636 124.182 71.9013 124.21 71.8371C124.346 71.5252 124.482 71.2133 124.618 70.9014C124.784 70.5218 124.949 70.1421 125.115 69.7625C125.143 69.699 125.17 69.6355 125.199 69.5701C125.338 69.2517 125.476 68.9333 125.615 68.6149C125.875 68.0202 126.134 67.4255 126.394 66.831C126.515 66.5525 126.637 66.2739 126.759 65.9954C126.816 65.8635 126.874 65.7317 126.932 65.5999C127.244 64.8859 127.553 64.1711 127.849 63.4502ZM126.355 69.662C124.683 73.8886 124.683 73.8886 123.68 78.3114C123.673 78.3616 123.665 78.4118 123.658 78.4636C123.589 78.992 123.584 79.5211 123.583 80.0534C123.582 80.2116 123.579 80.3698 123.577 80.528C123.572 81.7847 123.786 82.8403 124.629 83.8008C125.174 84.3027 126.011 84.691 126.748 84.7591C126.826 84.7664 126.904 84.7737 126.984 84.7812C128.721 84.8615 130.393 84.0366 131.704 82.9506C131.811 82.821 131.916 82.6902 132.019 82.5575C131.201 80.6413 130.372 78.7296 129.54 76.8194C129.266 76.19 128.993 75.5602 128.72 74.9303C128.68 74.8382 128.64 74.7461 128.599 74.6513C128.52 74.4697 128.441 74.2881 128.363 74.1065C128.148 73.6095 127.932 73.1125 127.717 72.6156C127.696 72.5667 127.674 72.5179 127.653 72.4675C127.247 71.532 126.841 70.5969 126.433 69.662C126.408 69.662 126.382 69.662 126.355 69.662Z" fill="#004A25"/>
<path d="M45.9531 63.8438C51.6903 63.8438 57.4275 63.8438 63.3385 63.8438C62.6229 65.2743 62.6229 65.2743 62.2716 65.8734C61.9011 66.5136 61.5384 67.1577 61.1801 67.8048C60.8143 68.465 60.4463 69.1239 60.0739 69.7804C59.7032 70.4337 59.3368 71.0893 58.9725 71.7461C58.5674 72.4767 58.1586 73.2052 57.7464 73.9318C57.4177 74.512 57.0932 75.0945 56.7698 75.6777C56.3626 76.412 55.9521 77.1443 55.538 77.8748C55.0874 78.67 54.6411 79.4676 54.1948 80.2652C53.965 80.6757 53.7351 81.086 53.5052 81.4964C53.4143 81.6585 53.3234 81.8207 53.2326 81.9829C53.0398 82.3269 52.8471 82.6709 52.6543 83.0149C52.6049 83.1029 52.5556 83.191 52.5048 83.2817C52.4109 83.4491 52.3171 83.6165 52.2233 83.7839C51.9679 84.2396 51.7133 84.6959 51.4598 85.1527C52.5085 85.1643 53.5543 85.1323 54.6022 85.0944C54.9008 85.0836 55.1993 85.0731 55.4978 85.0627C56.1316 85.0405 56.7654 85.018 57.3992 84.9954C58.1345 84.9692 58.8699 84.9431 59.6053 84.9175C59.8971 84.9072 60.1889 84.8967 60.4807 84.8861C61.4341 84.8523 62.3845 84.8305 63.3385 84.8382C63.3385 85.3831 63.3385 85.928 63.3385 86.4894C57.6013 86.4894 51.8642 86.4894 45.9531 86.4894C46.0596 86.2234 46.1607 85.9911 46.2964 85.743C46.3332 85.6756 46.37 85.6082 46.4079 85.5387C46.4476 85.4665 46.4874 85.3942 46.5284 85.3198C46.5912 85.2052 46.5912 85.2052 46.6552 85.0884C46.9913 84.477 47.3338 83.8692 47.6784 83.2625C48.0114 82.6757 48.34 82.0865 48.6671 81.4964C49.0744 80.7621 49.4849 80.0297 49.8989 79.2993C50.3496 78.504 50.7959 77.7065 51.2422 76.9088C51.4719 76.4984 51.7019 76.088 51.9318 75.6777C52.0236 75.5139 52.1154 75.35 52.2072 75.1862C53.5838 72.729 53.5838 72.729 54.9605 70.2718C55.0059 70.1907 55.0514 70.1096 55.0982 70.026C55.1898 69.8625 55.2815 69.6989 55.3732 69.5353C55.6048 69.122 55.8362 68.7086 56.0674 68.295C56.6497 67.2534 57.2379 66.2154 57.8318 65.1805C56.2561 65.2185 54.6806 65.2625 53.1054 65.3184C53.0323 65.321 52.9593 65.3235 52.8841 65.3262C52.2099 65.35 51.5358 65.374 50.8617 65.3985C49.2244 65.458 47.5917 65.51 45.9531 65.495C45.9531 64.9501 45.9531 64.4052 45.9531 63.8438Z" fill="#004A25"/>
<path d="M84.4889 22.9117C84.8958 23.1151 85.0487 23.4317 85.1929 23.8531C85.4053 24.7496 85.2468 25.716 84.7998 26.514C84.2267 27.3758 83.5232 27.9679 82.5203 28.2485C82.156 28.3138 81.8052 28.3339 81.4356 28.3372C81.3429 28.3384 81.3429 28.3384 81.2484 28.3396C80.2593 28.3254 79.3472 28.019 78.4364 27.659C78.3364 27.6203 78.2364 27.5817 78.1364 27.5432C77.6896 27.3708 77.2442 27.1952 76.7989 27.0192C76.1409 26.761 75.4867 26.5237 74.803 26.342C74.744 26.3263 74.6849 26.3106 74.6241 26.2944C72.6326 25.7944 70.6532 26.1945 68.8931 27.1971C66.6943 28.5887 65.5871 30.7329 65.0071 33.201C64.9636 33.4294 64.9338 33.6542 64.9106 33.8856C64.8949 34.0381 64.8949 34.0381 64.879 34.1937C64.6567 36.7703 65.2712 39.5914 66.9019 41.6455C66.998 41.759 67.0947 41.872 67.192 41.9846C67.2392 42.0475 67.2865 42.1105 67.3351 42.1753C67.8909 42.8314 68.6666 43.3511 69.4733 43.6358C69.5243 43.6549 69.5753 43.6739 69.6279 43.6936C69.9753 43.8022 70.3114 43.7988 70.6739 43.7965C70.8228 43.7957 70.8228 43.7957 70.9746 43.795C71.0503 43.7944 71.126 43.7937 71.204 43.7931C71.2046 43.6898 71.2052 43.5865 71.2059 43.48C71.212 42.5037 71.2189 41.5274 71.2266 40.551C71.2305 40.0492 71.2342 39.5473 71.2372 39.0454C71.2401 38.5605 71.2437 38.0757 71.2479 37.5908C71.2493 37.4064 71.2505 37.222 71.2514 37.0375C71.2528 36.778 71.2551 36.5185 71.2576 36.259C71.2577 36.1838 71.2579 36.1085 71.2581 36.0309C71.2775 34.4335 71.2775 34.4335 71.8333 33.8856C72.3577 33.464 72.876 33.3976 73.5283 33.3776C73.8 33.4138 73.8 33.4138 74.6653 33.7283C74.6653 37.2832 74.6653 40.8381 74.6653 44.5008C66.7305 44.5008 66.7305 44.5008 63.9983 41.7827C62.183 39.9291 61.4287 37.3961 61.4297 34.847C61.4533 32.6976 62.0104 30.4517 63.4159 28.7746C63.4969 28.6761 63.4969 28.6761 63.5794 28.5756C65.322 26.5456 67.9481 25.462 70.5746 25.2362C73.0193 25.0745 75.2164 25.6302 77.4392 26.5766C80.0732 27.7801 80.0732 27.7801 82.8467 27.5165C83.4574 27.2038 83.8387 26.6367 84.0958 26.0118C84.3307 25.2025 84.1665 24.46 83.7793 23.7297C83.6832 23.5231 83.7198 23.4045 83.7907 23.1918C83.9899 22.9385 84.1634 22.8622 84.4889 22.9117Z" fill="#D1B54D"/>
<path d="M79.6276 15.564C80.2261 15.5584 80.8246 15.5543 81.4231 15.5518C81.7012 15.5505 81.9793 15.5489 82.2574 15.5462C85.3356 15.5169 87.9709 15.9866 90.2575 18.2079C92.0466 20.0057 92.8515 22.4967 92.8731 24.9947C92.8583 27.1481 92.3488 29.3146 91.0343 31.0542C90.9763 31.1324 90.9183 31.2105 90.8585 31.291C89.329 33.242 86.7897 34.4167 84.3637 34.7299C81.5944 35.0488 79.1688 34.4229 76.6432 33.361C74.2954 32.2804 74.2954 32.2804 71.81 32.3615C71.0255 32.7304 70.5109 33.257 70.1974 34.0717C69.9814 34.8163 70.1022 35.4712 70.4235 36.1652C70.5014 36.282 70.5014 36.282 70.5809 36.4011C70.5697 36.6688 70.5508 36.8189 70.3695 37.0203C70.1258 37.1388 69.9837 37.1526 69.7155 37.1088C69.2861 36.7894 69.1418 36.3813 69.0463 35.875C68.9129 34.8098 69.223 33.8912 69.8234 33.0209C70.4592 32.209 71.3903 31.8223 72.3902 31.6833C74.2164 31.5433 75.9279 32.3669 77.5773 33.0397C79.5481 33.8433 81.7261 34.3027 83.7969 33.5704C83.8471 33.5531 83.8974 33.5359 83.9491 33.5181C85.9044 32.8357 87.4315 31.4022 88.3596 29.5602C89.6253 26.8687 89.7914 23.8468 88.8287 21.0227C88.7352 20.7707 88.6301 20.5256 88.517 20.2818C88.4918 20.2276 88.4667 20.1733 88.4408 20.1174C87.6848 18.5244 86.5955 17.1964 84.9769 16.4289C84.5718 16.2885 84.1965 16.2414 83.7724 16.2225C83.7161 16.2195 83.6599 16.2164 83.602 16.2133C83.4047 16.2029 83.2079 16.193 83.0103 16.193C83.0106 16.2963 83.011 16.3996 83.0113 16.5061C83.0145 17.4824 83.0169 18.4587 83.0184 19.4351C83.0192 19.937 83.0203 20.4388 83.0221 20.9407C83.0239 21.4255 83.0248 21.9104 83.0252 22.3953C83.0255 22.5797 83.026 22.7642 83.0269 22.9486C83.0281 23.2081 83.0282 23.4676 83.0281 23.7271C83.0287 23.8023 83.0293 23.8776 83.0298 23.9552C83.0274 24.7618 83.0007 25.5494 82.4138 26.149C81.9639 26.5447 81.4744 26.6309 80.8863 26.6509C80.418 26.6162 80.009 26.5447 79.6276 26.2578C79.5792 26.0617 79.5792 26.0617 79.5803 25.8234C79.5797 25.7331 79.5792 25.6428 79.5786 25.5498C79.5801 25.4506 79.5815 25.3515 79.5829 25.2493C79.583 25.1439 79.583 25.0385 79.5828 24.9331C79.5826 24.6469 79.585 24.3607 79.5877 24.0744C79.5902 23.7754 79.5904 23.4763 79.5909 23.1772C79.5921 22.6108 79.5953 22.0444 79.5993 21.4779C79.6037 20.8331 79.6058 20.1883 79.6078 19.5435C79.6119 18.217 79.6188 16.8905 79.6276 15.564Z" fill="#D1B54D"/>
<path d="M106.375 63.8438C107.725 63.8438 109.075 63.8438 110.466 63.8438C110.466 71.3168 110.466 78.7899 110.466 86.4894C109.116 86.4894 107.766 86.4894 106.375 86.4894C106.375 79.0163 106.375 71.5433 106.375 63.8438Z" fill="#004A25"/>
<path d="M108.179 50.5547C108.362 50.8282 108.373 51.044 108.4 51.3607C108.554 52.7797 109.139 54.0406 110.26 54.9586C110.453 55.0989 110.65 55.2271 110.854 55.3512C110.912 55.3874 110.971 55.4237 111.031 55.4611C111.893 55.9429 112.947 56.0999 113.922 56.1375C113.922 56.1634 113.922 56.1894 113.922 56.2161C113.878 56.2208 113.835 56.2255 113.79 56.2303C112.151 56.4146 110.601 56.795 109.504 58.133C108.791 59.1484 108.407 60.2367 108.358 61.4813C108.336 61.6416 108.336 61.6416 108.179 61.7989C108.171 61.7086 108.164 61.6183 108.156 61.5252C108.02 60.0619 107.648 58.6646 106.527 57.6315C105.365 56.6891 104.054 56.3602 102.594 56.2161C102.594 56.1902 102.594 56.1642 102.594 56.1375C102.684 56.1298 102.774 56.1221 102.868 56.1141C104.489 55.9637 105.86 55.4971 106.979 54.2559C107.831 53.1946 108.133 51.8877 108.179 50.5547Z" fill="#004A25"/>
<path d="M90.0078 94.7461C90.3872 94.8409 90.4656 94.9897 90.6608 95.3008C90.7079 95.3735 90.7079 95.3735 90.756 95.4476C90.8566 95.6031 90.9558 95.7594 91.0551 95.9157C91.1209 96.018 91.1868 96.1201 91.2528 96.2223C91.4988 96.6038 91.7437 96.9859 91.982 97.3723C92.0309 97.4513 92.0799 97.5304 92.1303 97.6118C92.1727 97.6814 92.2151 97.7509 92.2588 97.8226C92.2948 97.8712 92.3308 97.9198 92.3678 97.97C92.4197 97.97 92.4717 97.97 92.5252 97.97C92.6436 97.797 92.7523 97.624 92.8595 97.4441C93.1932 96.8968 93.5406 96.3601 93.8969 95.8273C93.9443 95.7561 93.9918 95.685 94.0406 95.6117C94.2933 95.2344 94.2933 95.2344 94.4132 95.0606C94.4716 94.972 94.4716 94.972 94.5312 94.8816C94.5896 94.8145 94.5896 94.8145 94.6492 94.7461C94.727 94.7461 94.8049 94.7461 94.8852 94.7461C94.8852 96.4068 94.8852 98.0675 94.8852 99.7785C94.5736 99.7785 94.2621 99.7785 93.9412 99.7785C93.9152 99.0519 93.8892 98.3254 93.8625 97.5768C93.4812 98.1872 93.4812 98.1872 93.1 98.7977C93.0525 98.8737 93.0049 98.9497 92.956 99.0281C92.9074 99.1059 92.8588 99.1837 92.8087 99.2639C92.7162 99.4105 92.6213 99.5556 92.5252 99.6998C92.2239 99.5994 92.1908 99.4955 92.0307 99.2262C91.9825 99.1459 91.9343 99.0656 91.8846 98.9829C91.8348 98.8984 91.7849 98.8139 91.7336 98.7268C91.6343 98.5607 91.5351 98.3946 91.4358 98.2286C91.392 98.1545 91.3482 98.0805 91.303 98.0042C91.2159 97.8594 91.1242 97.7174 91.0305 97.5768C91.0045 98.3033 90.9786 99.0299 90.9518 99.7785C90.6403 99.7785 90.3288 99.7785 90.0078 99.7785C90.0078 98.1178 90.0078 96.4571 90.0078 94.7461Z" fill="#004A25"/>
<path d="M37.3004 95.2961C37.4457 95.4294 37.4457 95.4294 37.5364 95.532C37.4314 95.8146 37.3035 96.0632 37.143 96.3183C36.9402 96.221 36.7466 96.1133 36.553 95.9989C36.1679 95.7795 35.861 95.7306 35.4124 95.7679C34.9272 95.9236 34.593 96.2125 34.311 96.6329C34.1666 97.0658 34.1424 97.5715 34.3037 98.0031C34.5511 98.4239 34.8665 98.6789 35.3337 98.8345C35.839 98.8758 36.2287 98.8707 36.671 98.5986C36.723 98.5986 36.7749 98.5986 36.8284 98.5986C36.8625 98.5111 36.8625 98.5111 36.8972 98.4217C36.9711 98.2413 37.0558 98.0653 37.143 97.891C36.6498 97.891 36.1566 97.891 35.6484 97.891C35.6484 97.6055 35.6484 97.3201 35.6484 97.026C36.4531 97.026 37.2579 97.026 38.0871 97.026C38.0871 97.9088 38.067 98.6077 37.4454 99.267C36.8112 99.7828 36.1284 99.9127 35.3337 99.8567C34.6555 99.7468 34.1287 99.4269 33.6955 98.8938C33.2256 98.2194 33.1378 97.6041 33.2097 96.7901C33.3791 96.0878 33.7635 95.5028 34.37 95.1094C35.3916 94.5484 36.3312 94.7034 37.3004 95.2961Z" fill="#004A25"/>
<path d="M44.3937 95.2601C45.0047 95.7601 45.3412 96.3321 45.4209 97.1169C45.4539 97.8966 45.1868 98.5335 44.6761 99.1149C44.0696 99.6521 43.4601 99.9003 42.6427 99.8812C41.8151 99.7933 41.2855 99.3873 40.7378 98.7954C40.3179 98.1736 40.1978 97.5153 40.3359 96.7861C40.5229 96.0637 40.857 95.537 41.4741 95.105C42.4179 94.5899 43.5169 94.6357 44.3937 95.2601ZM41.4851 96.4196C41.2147 96.81 41.173 97.1905 41.2344 97.6553C41.4061 98.2205 41.7855 98.5743 42.2866 98.8642C42.7921 98.9846 43.2274 98.9611 43.6844 98.7039C44.0423 98.4464 44.3563 98.0897 44.4597 97.6553C44.523 97.1422 44.449 96.7417 44.1451 96.3186C43.7573 95.8954 43.3923 95.7156 42.8176 95.66C42.2396 95.6788 41.8314 95.9748 41.4851 96.4196Z" fill="#004A25"/>
<path d="M101.522 95.3294C102.08 95.8567 102.368 96.5309 102.396 97.2862C102.375 98.024 102.167 98.6333 101.652 99.1709C101.08 99.665 100.409 99.8952 99.6561 99.8758C98.8808 99.8028 98.3534 99.4748 97.8182 98.9276C97.3148 98.2148 97.243 97.5658 97.3265 96.7112C97.4526 96.1438 97.7447 95.668 98.1919 95.2959C99.2647 94.6352 100.483 94.5398 101.522 95.3294ZM98.595 96.2198C98.287 96.6906 98.134 97.0751 98.2257 97.6416C98.3574 98.142 98.6438 98.4605 99.0572 98.7556C99.4223 98.9686 99.8265 98.9618 100.237 98.9129C100.763 98.7663 101.065 98.4296 101.339 97.9693C101.486 97.5258 101.479 97.0429 101.324 96.6031C101.016 96.1581 100.669 95.8665 100.159 95.689C99.5406 95.6106 99.0459 95.7887 98.595 96.2198Z" fill="#004A25"/>
<path d="M53.1953 94.8242C55.7203 94.8242 55.7203 94.8242 56.4993 95.4533C57.0821 96.06 57.2148 96.7519 57.2073 97.5763C57.0998 98.3332 56.8477 98.8731 56.2526 99.3596C55.3552 99.9952 54.25 99.778 53.1953 99.778C53.1953 98.1432 53.1953 96.5085 53.1953 94.8242ZM54.1393 95.7678C54.1393 96.7798 54.1393 97.7917 54.1393 98.8344C55.0504 98.8851 55.0504 98.8851 55.7913 98.5199C56.1821 98.0979 56.2936 97.702 56.2851 97.134C56.2355 96.7092 56.0357 96.3732 55.7176 96.0921C55.1519 95.6998 54.8917 95.7678 54.1393 95.7678Z" fill="#004A25"/>
<path d="M104.797 94.7461C105.091 94.8932 105.24 95.0119 105.467 95.2406C105.535 95.3082 105.602 95.3758 105.672 95.4455C105.742 95.5163 105.811 95.5872 105.883 95.6602C105.952 95.7292 106.021 95.7982 106.093 95.8693C106.438 96.2168 106.774 96.5672 107.089 96.9423C107.312 97.1896 107.551 97.4205 107.786 97.6554C107.812 96.7213 107.838 95.7872 107.865 94.8247C108.176 94.8247 108.488 94.8247 108.809 94.8247C108.809 96.4854 108.809 98.1461 108.809 99.8571C108.497 99.7792 108.44 99.7541 108.234 99.5377C108.161 99.4621 108.161 99.4621 108.087 99.385C107.957 99.2432 107.832 99.0991 107.708 98.9528C107.373 98.5636 107.005 98.2075 106.639 97.8485C106.59 97.8 106.541 97.7515 106.49 97.7015C106.446 97.6586 106.402 97.6156 106.357 97.5714C106.168 97.3724 105.995 97.1586 105.82 96.9478C105.794 97.8819 105.768 98.816 105.741 99.7785C105.429 99.7785 105.118 99.7785 104.797 99.7785C104.797 98.1178 104.797 96.4571 104.797 94.7461Z" fill="#004A25"/>
<path d="M65.4624 94.8027C65.7715 94.9644 65.992 95.156 66.1716 95.453C66.2306 95.7527 66.2306 95.7527 66.2503 96.0034C65.9647 96.0293 65.6792 96.0553 65.385 96.082C65.333 95.9523 65.2811 95.8225 65.2276 95.6888C65.0199 95.6888 64.8123 95.6888 64.5983 95.6888C64.5479 96.2425 64.6705 96.5742 64.9916 97.0256C65.155 97.2187 65.3225 97.405 65.4971 97.588C65.621 97.7332 65.621 97.7332 65.621 97.8905C65.6988 97.9165 65.7767 97.9424 65.857 97.9691C65.9089 97.7356 65.9608 97.5021 66.0143 97.2615C66.2999 97.2615 66.5854 97.2615 66.8796 97.2615C66.8957 97.7661 66.8467 98.1874 66.7223 98.6768C67.0728 98.8325 67.0728 98.8325 67.4303 98.9913C67.4303 99.2508 67.4303 99.5103 67.4303 99.7776C66.7787 99.7283 66.7787 99.7283 66.4666 99.5663C66.2599 99.4391 66.2599 99.4391 66.0635 99.5123C65.9612 99.5658 65.9612 99.5658 65.857 99.6204C65.2574 99.889 64.6692 99.9689 64.028 99.7776C63.6569 99.6186 63.409 99.3172 63.1823 98.9913C63.0379 98.5585 63.0076 98.0454 63.1832 97.6184C63.3142 97.4068 63.4418 97.2295 63.6325 97.0683C63.7517 96.9534 63.7517 96.9534 63.7188 96.794C63.7008 96.7374 63.6827 96.6809 63.6641 96.6226C63.5358 96.1298 63.5591 95.7334 63.7772 95.2711C64.2159 94.7877 64.8294 94.5698 65.4624 94.8027ZM64.0771 97.7775C63.9256 98.0459 63.9263 98.2158 63.969 98.5196C64.1717 98.802 64.3011 98.8963 64.6376 98.9864C64.9111 98.9913 65.0656 98.958 65.3063 98.8341C65.1979 98.5882 65.0732 98.4285 64.8785 98.2443C64.7211 98.0925 64.5867 97.9535 64.4557 97.7775C64.4095 97.7167 64.4095 97.7167 64.3623 97.6546C64.1943 97.6364 64.1943 97.6364 64.0771 97.7775Z" fill="#004A25"/>
<path d="M111.484 94.8242C114.018 94.8242 114.018 94.8242 114.723 95.4462C115.277 96.0177 115.424 96.5517 115.452 97.3355C115.437 97.9525 115.3 98.5168 114.931 99.0211C113.943 99.9427 112.831 99.778 111.484 99.778C111.484 98.1432 111.484 96.5085 111.484 94.8242ZM112.35 95.7678C112.35 96.7798 112.35 97.7917 112.35 98.8344C113.346 98.8908 113.346 98.8908 114.08 98.4412C114.487 98.0038 114.506 97.6292 114.501 97.0498C114.462 96.6743 114.338 96.4336 114.08 96.1609C113.499 95.6985 113.138 95.7678 112.35 95.7678Z" fill="#004A25"/>
<path d="M73.4922 94.8242C76.0502 94.8242 76.0502 94.8242 76.8552 95.5368C77.3714 96.0965 77.4724 96.7704 77.4627 97.5091C77.4336 98.1696 77.2253 98.7074 76.7722 99.191C75.868 99.9719 74.5994 99.778 73.4922 99.778C73.4922 98.1432 73.4922 96.5085 73.4922 94.8242ZM74.3575 95.7678C74.3575 96.7798 74.3575 97.7917 74.3575 98.8344C75.3305 98.8999 75.3305 98.8999 76.0747 98.4772C76.4221 98.0755 76.5751 97.7418 76.5504 97.2062C76.4831 96.6943 76.3438 96.327 75.9309 96.0037C75.4274 95.6903 74.9632 95.7678 74.3575 95.7678Z" fill="#004A25"/>
<path d="M85.2886 94.7461C85.3665 94.7461 85.4444 94.7461 85.5246 94.7461C86.1349 96.0379 86.7404 97.3316 87.329 98.6334C87.3533 98.6869 87.3775 98.7404 87.4025 98.7955C87.4707 98.9461 87.5387 99.0967 87.6065 99.2474C87.6452 99.3331 87.6838 99.4188 87.7236 99.5071C87.806 99.6998 87.806 99.6998 87.806 99.7785C87.4685 99.7785 87.131 99.7785 86.7833 99.7785C86.6794 99.5709 86.5756 99.3633 86.4686 99.1494C85.7677 99.1494 85.0668 99.1494 84.3446 99.1494C84.2408 99.357 84.1369 99.5646 84.0299 99.7785C83.7184 99.7785 83.4069 99.7785 83.0859 99.7785C83.1415 99.5006 83.1786 99.3273 83.2923 99.0841C83.3184 99.0278 83.3444 98.9715 83.3713 98.9134C83.3996 98.8533 83.428 98.7933 83.4571 98.7314C83.5013 98.6364 83.5013 98.6364 83.5464 98.5394C83.6416 98.3347 83.7375 98.1302 83.8333 97.9257C83.9306 97.7167 84.0279 97.5077 84.1251 97.2986C84.1889 97.1614 84.2527 97.0243 84.3166 96.8871C84.5558 96.3733 84.7915 95.858 85.0231 95.3407C85.0514 95.2777 85.0796 95.2146 85.1087 95.1497C85.1688 95.0152 85.2287 94.8807 85.2886 94.7461ZM85.3673 96.7119C85.2619 96.9443 85.1572 97.177 85.0526 97.4097C85.0226 97.4759 84.9926 97.5421 84.9617 97.6103C84.9333 97.6736 84.9049 97.737 84.8756 97.8022C84.8492 97.8607 84.8229 97.9192 84.7957 97.9794C84.7284 98.1252 84.7284 98.1252 84.7379 98.2845C85.1793 98.2845 85.6206 98.2845 86.0753 98.2845C86.0196 98.0064 85.9841 97.8365 85.8685 97.5949C85.8439 97.543 85.8193 97.491 85.794 97.4375C85.7684 97.3845 85.7427 97.3316 85.7164 97.277C85.6905 97.2225 85.6645 97.1681 85.6379 97.1119C85.5743 96.9784 85.5102 96.8451 85.4459 96.7119C85.42 96.7119 85.394 96.7119 85.3673 96.7119Z" fill="#004A25"/>
<path d="M120.56 95.107C120.732 95.2576 120.837 95.3973 120.921 95.6101C120.816 95.9247 120.646 95.9906 120.371 96.1606C120.196 96.0794 120.06 96.0075 119.918 95.8755C119.657 95.7158 119.411 95.7093 119.112 95.7674C118.915 95.9116 118.915 95.9116 118.797 96.0819C118.824 96.2725 118.824 96.2725 118.955 96.4751C119.183 96.6156 119.43 96.7119 119.677 96.8142C120.298 97.087 120.765 97.3431 121.079 97.9691C121.122 98.4372 121.121 98.8319 120.843 99.2272C120.401 99.7016 119.969 99.8566 119.323 99.8857C118.799 99.8735 118.338 99.7521 117.932 99.4093C117.698 99.1585 117.698 99.1585 117.617 98.9913C117.63 98.8279 117.63 98.8279 117.696 98.6767C117.937 98.4998 117.937 98.4998 118.168 98.3622C118.367 98.4542 118.517 98.5471 118.689 98.6866C119.045 98.8843 119.342 98.9109 119.741 98.834C120.001 98.6798 120.001 98.6798 120.135 98.4409C120.161 98.2276 120.161 98.2276 120.056 98.0477C119.926 97.9917 119.795 97.9403 119.663 97.8904C119.438 97.7862 119.219 97.674 118.999 97.5612C118.941 97.5327 118.883 97.5043 118.823 97.475C118.415 97.2643 118.099 97.0269 117.853 96.6323C117.754 96.243 117.795 95.8262 117.971 95.4627C118.21 95.11 118.58 94.8812 118.988 94.7735C119.562 94.6934 120.083 94.7686 120.56 95.107Z" fill="#004A25"/>
<path d="M47.8438 94.8242C48.1293 94.8242 48.4149 94.8242 48.7091 94.8242C48.7091 96.1476 48.7091 97.4709 48.7091 98.8344C49.41 98.8344 50.1109 98.8344 50.8331 98.8344C50.8331 99.1458 50.8331 99.4571 50.8331 99.778C49.8466 99.778 48.8601 99.778 47.8438 99.778C47.8438 98.1432 47.8438 96.5085 47.8438 94.8242Z" fill="#004A25"/>
<path d="M77.1044 27.3594C77.1303 27.3594 77.1563 27.3594 77.183 27.3594C77.1955 27.4315 77.208 27.5037 77.2208 27.5781C77.3715 28.37 77.5629 28.9459 78.2045 29.4575C78.6908 29.775 79.2056 29.9117 79.779 29.9542C79.5635 30.072 79.3818 30.133 79.1399 30.1704C78.498 30.3078 77.9594 30.6513 77.5905 31.196C77.3393 31.6658 77.2401 32.1811 77.183 32.7063C77.1571 32.7063 77.1311 32.7063 77.1044 32.7063C77.0928 32.6359 77.0812 32.5656 77.0693 32.4931C76.9204 31.6908 76.7332 31.0253 76.0374 30.5439C75.6526 30.3081 75.2825 30.1766 74.8378 30.1016C74.761 30.0884 74.6842 30.0753 74.6052 30.0617C74.5183 30.0474 74.5183 30.0474 74.4297 30.0328C74.4297 30.0069 74.4297 29.9809 74.4297 29.9542C74.4887 29.9474 74.5477 29.9406 74.6085 29.9336C75.4324 29.8206 76.0724 29.6002 76.601 28.9341C76.935 28.4502 77.0168 27.9286 77.1044 27.3594Z" fill="#D1B54D"/>
<path d="M79.8594 94.8242C80.1709 94.8242 80.4824 94.8242 80.8034 94.8242C80.8034 96.459 80.8034 98.0937 80.8034 99.778C80.4919 99.778 80.1803 99.778 79.8594 99.778C79.8594 98.1432 79.8594 96.5085 79.8594 94.8242Z" fill="#004A25"/>
</g>
<defs>
<clipPath id="clip0_101_3420">
<rect width="121.855" height="93.0988" fill="white" transform="translate(16.2188 6.75781)"/>
</clipPath>
</defs>
</svg>
