<svg width="22" height="23" viewBox="0 0 22 23" fill="none" xmlns="http://www.w3.org/2000/svg">
<path d="M16.5391 7.17676C16.5391 4.13919 14.0767 1.67676 11.0391 1.67676C8.00149 1.67676 5.53906 4.13919 5.53906 7.17676M2.91195 16.6962L1.70839 9.51657C1.52641 8.43104 1.43543 7.88828 1.72679 7.53252C2.01816 7.17676 2.55367 7.17676 3.6247 7.17676H18.4535C19.5245 7.17676 20.06 7.17676 20.3514 7.53252C20.6427 7.88828 20.5517 8.43104 20.3698 9.51657L19.1662 16.6962C18.7673 19.0759 18.5678 20.2657 17.7534 20.9713C16.9391 21.6768 15.7651 21.6768 13.4173 21.6768H8.66088C6.31302 21.6768 5.13909 21.6768 4.32471 20.9713C3.51033 20.2657 3.31087 19.0759 2.91195 16.6962Z" stroke="#CFB34C" stroke-width="1.5"/>
</svg>
