<svg width="21" height="22" viewBox="0 0 21 22" fill="none" xmlns="http://www.w3.org/2000/svg">
<path d="M16 6.35327C16 3.3157 13.5376 0.853271 10.5 0.853271C7.46243 0.853271 5 3.3157 5 6.35327M2.37289 15.8727L1.16933 8.69308C0.98735 7.60755 0.89637 7.06479 1.18773 6.70903C1.4791 6.35327 2.01461 6.35327 3.08564 6.35327H17.9144C18.9854 6.35327 19.5209 6.35327 19.8123 6.70903C20.1036 7.06479 20.0126 7.60755 19.8307 8.69308L18.6271 15.8727C18.2282 18.2524 18.0287 19.4422 17.2143 20.1478C16.4 20.8533 15.226 20.8533 12.8782 20.8533H8.12182C5.77396 20.8533 4.60003 20.8533 3.78565 20.1478C2.97127 19.4422 2.77181 18.2524 2.37289 15.8727Z" stroke="white" stroke-width="1.5"/>
</svg>
