<svg width="47" height="47" viewBox="0 0 47 47" fill="none" xmlns="http://www.w3.org/2000/svg">
<path d="M2.66185 0.974868C2.66174 1.21477 2.71067 1.31075 2.71061 1.4547C2.75795 5.24519 3.98085 8.70032 6.23239 11.7721C7.55394 13.5959 9.12048 15.1799 10.736 16.668C11.862 17.7721 13.0369 18.8282 14.0159 20.0281C14.946 21.1321 15.6311 22.3319 15.9733 23.7235C16.3644 25.355 16.1679 26.9382 15.3836 28.4253C14.8445 29.4327 13.9626 30.104 12.9339 30.6313C11.4153 31.4464 9.75006 31.6376 8.036 31.4449C6.66477 31.2524 5.53861 30.6281 4.65751 29.5722C3.87427 28.7082 3.38495 27.7004 3.14057 26.5488C2.84736 25.0612 3.28869 23.7659 4.2197 22.6628C4.7587 22.0393 5.44452 21.6557 6.27717 21.5121C7.55061 21.3208 8.72592 21.5612 9.80307 22.2814C10.9292 23.0495 11.8589 24.8732 10.8296 26.744C10.3395 27.6554 9.35978 28.0868 8.18445 27.8944C8.3314 27.8465 8.42938 27.7985 8.52735 27.7506C9.55602 27.3192 10.1931 26.4079 10.1446 25.3523C10.0472 24.0088 9.45999 22.857 8.23592 22.1367C7.84422 21.8967 7.40344 21.8965 7.01155 22.0882C6.37472 22.4238 5.83578 22.9034 5.49269 23.527C5.10057 24.2465 4.90436 24.9662 4.95298 25.7819C5.09898 27.941 6.22473 29.5249 8.13432 30.5813C9.5053 31.3496 10.8278 31.0623 12.0526 30.0072C13.4244 28.8563 13.9638 27.3691 14.0625 25.6419C14.1611 24.1065 13.7699 22.6669 12.9869 21.3231C12.2528 20.0753 11.3227 18.9714 10.2947 17.9633C9.56037 17.2433 8.87502 16.5233 8.18967 15.8033C7.16164 14.7473 6.18261 13.6433 5.35053 12.4914C4.07791 10.7635 3.09919 8.93985 2.51237 6.87643C2.12119 5.43684 2.02388 3.94939 2.07349 2.46202C2.17163 2.03023 2.2698 1.55047 2.66185 0.974868Z" fill="url(#paint0_linear_101_3781)"/>
<path d="M19.4424 38.9827C19.4914 38.7428 19.4915 38.5029 19.5406 38.263C19.6879 37.3514 20.227 36.68 21.1087 36.3445C22.8231 35.6255 24.7328 36.346 25.6137 37.9298C26.0541 38.7456 26.2007 39.6094 26.1513 40.521C26.1018 41.7684 25.4158 42.6798 24.387 43.3511C23.3582 44.0223 22.1827 44.2617 20.9094 44.0213C19.1465 43.6847 17.7266 42.7244 16.7477 41.2366C16.3072 40.6127 16.0627 39.8928 15.965 39.1251C15.8187 37.7816 15.9662 36.4862 16.4565 35.2389C16.8487 34.1835 17.5348 33.2722 18.3677 32.5528C18.7106 32.2651 19.1025 32.0253 19.4944 31.8816C21.4048 31.0667 23.2658 31.1155 25.1756 31.884C26.1059 32.2683 26.8893 32.7964 27.6726 33.4205C28.9456 34.3806 30.0226 35.5327 31.0995 36.6847C32.5192 38.1247 33.9389 39.5167 35.6035 40.717C38.7369 43.0694 42.3116 44.3664 46.2785 44.5121C46.4744 44.5121 46.6703 44.5122 46.9642 44.5603C46.8172 44.7042 46.7192 44.8001 46.6212 44.8481C46.1803 45.0398 45.6906 45.0876 45.1518 45.1353C42.8499 45.1823 40.6952 44.7495 38.5897 43.789C36.9738 43.0206 35.5539 42.1084 34.1341 41.0522C32.5674 39.852 31.1967 38.46 29.777 37.1159C28.7 36.0599 27.525 35.0997 26.203 34.3795C24.1465 33.227 21.9427 32.9862 19.6895 33.7529C18.3669 34.2321 17.3871 35.0954 16.7009 36.2946C16.2598 37.1101 16.2104 37.9737 16.6018 38.8375C17.3847 40.5652 19.392 42.2933 21.8897 42.2464C23.0651 42.2469 24.1917 41.8636 24.9757 40.9523C25.9558 39.7532 25.858 39.3693 24.8789 38.3613C24.1936 37.6413 23.3121 37.305 22.3327 37.1607C21.2553 37.0163 20.2266 37.5916 19.7364 38.551C19.6874 38.6949 19.6873 38.9348 19.4424 38.9827Z" fill="url(#paint1_linear_101_3781)"/>
<path d="M17.5857 30.5367C17.3899 30.3447 17.1451 30.1047 16.9493 29.9127C16.9493 29.8167 16.9494 29.7208 16.9984 29.6248C17.8319 27.466 18.9102 25.4513 20.1354 23.5326C20.5765 22.8131 21.2134 22.3336 21.9971 22.046C23.2217 21.5668 24.4463 21.2794 25.7197 21.0401C25.8666 21.0401 26.0136 20.9922 26.1115 20.9922C26.4054 20.9924 26.6991 21.2804 26.699 21.5683C26.6989 21.7602 26.6988 21.9521 26.6498 22.144C26.4534 23.2475 26.1591 24.3509 25.7668 25.4063C25.4236 26.3178 24.8845 27.0373 24.0517 27.5167C22.0432 28.7154 19.9858 29.818 17.7816 30.5848C17.7816 30.5368 17.7326 30.5368 17.5857 30.5367Z" fill="url(#paint2_linear_101_3781)"/>
<path d="M4.81401 2.8467C4.96085 3.03868 5.05877 3.13468 5.15666 3.27867C5.74378 4.62238 6.72283 5.67837 7.70188 6.73437C8.53409 7.59838 9.56231 8.22257 10.6885 8.70286C11.472 8.99109 12.3045 9.27934 13.088 9.51958C14.7529 10.0001 16.3689 10.5286 17.9358 11.2969C18.6702 11.6811 19.3557 12.0653 20.0412 12.5933C21.1183 13.4095 21.8524 14.4654 22.3907 15.6651C22.831 16.6729 22.9775 17.7285 22.5363 18.7839C22.4382 19.0238 22.3401 19.2636 21.9972 19.4554C21.9973 19.3115 21.9484 19.2155 21.9484 19.0716C22.1939 17.6802 21.7046 16.5285 20.9215 15.4726C20.2362 14.5127 19.257 13.8405 18.2288 13.2643C17.0537 12.592 15.7315 12.1117 14.4093 11.7752C13.6258 11.583 12.8913 11.3907 12.1078 11.1505C10.6876 10.766 9.3656 10.0937 8.2396 9.08566C7.40735 8.31761 6.72207 7.45365 6.08578 6.54175C5.59634 5.82183 5.15589 5.05395 4.91137 4.23817C4.81362 3.75833 4.71583 3.37444 4.81401 2.8467Z" fill="url(#paint3_linear_101_3781)"/>
<path d="M45.3041 42.4003C44.6184 42.5439 44.1776 42.3998 43.7369 42.2556C42.9044 42.0154 42.17 41.5832 41.4845 41.1511C40.4563 40.431 39.4282 39.7108 38.645 38.7508C37.7639 37.7429 37.2256 36.5911 36.8343 35.3434C36.5898 34.5756 36.3942 33.8079 36.1987 32.9921C35.7586 31.4086 35.1715 29.8729 34.1926 28.5291C33.5563 27.6172 32.7731 26.8011 31.7938 26.2729C30.8145 25.7447 29.8351 25.4564 28.7086 25.6478C28.6107 25.6478 28.5127 25.6478 28.4148 25.6477C28.3169 25.4558 28.4639 25.3599 28.5618 25.3119C29.0517 24.9763 29.5905 24.8326 30.1782 24.8328C30.9618 24.8331 31.6964 24.9774 32.4309 25.3136C34.0468 26.034 35.2707 27.1381 36.1516 28.6259C36.9346 29.9697 37.5707 31.3614 38.0108 32.849C38.3532 33.9527 38.6955 35.0564 39.0869 36.1601C39.4782 37.2638 40.0655 38.2717 40.8487 39.1356C41.4361 39.8556 42.2195 40.3837 42.9049 40.9598C43.4924 41.4399 44.1289 41.824 44.7655 42.1121C44.9124 42.1602 45.0103 42.2562 45.3041 42.4003Z" fill="url(#paint4_linear_101_3781)"/>
<path d="M13.0285 34.3262C13.1753 34.7101 13.0282 34.9499 12.9302 35.1898C12.6361 35.7654 12.342 36.3411 11.9989 36.8687C11.2148 38.1639 10.3816 39.459 9.4016 40.6101C8.71559 41.4255 7.98064 42.1928 7.09883 42.7682C6.7069 43.0559 6.26608 43.1517 5.7763 43.1995C4.79675 43.295 3.86661 42.383 3.96496 41.4714C4.0142 40.8477 4.25931 40.32 4.6513 39.8883C5.28831 39.1209 6.02323 38.4495 6.80711 37.8261C8.22789 36.6752 9.84447 35.7642 11.4121 34.9013C11.755 34.7095 12.0979 34.5657 12.4408 34.4219C12.6367 34.326 12.8326 34.3261 13.0285 34.3262ZM12.0975 35.3334C12.0486 35.3334 12.0486 35.2854 11.9996 35.2854C11.5587 35.573 11.1178 35.9087 10.6279 36.1964C9.45213 37.0116 8.22742 37.7787 7.10059 38.6899C6.41469 39.2653 5.72877 39.8408 5.23869 40.6083C4.99365 40.992 4.84656 41.3758 4.84637 41.8076C4.84623 42.1435 5.04203 42.3835 5.38488 42.3357C5.87463 42.3359 6.31549 42.1441 6.70739 41.9044C7.09932 41.6167 7.49126 41.329 7.83423 40.9933C8.37321 40.4177 8.9122 39.7942 9.40224 39.1227C10.2843 37.9715 11.1174 36.7724 11.9505 35.5732C11.9995 35.5253 12.0485 35.4293 12.0975 35.3334Z" fill="url(#paint5_linear_101_3781)"/>
<path d="M33.3105 30.5439C33.1635 30.9277 32.8696 31.0235 32.5757 31.1193C32.3308 31.1672 32.0369 31.2151 31.743 31.2149C28.8044 31.4056 25.915 31.0685 23.1238 30.1556C22.879 30.0596 22.5851 30.0594 22.5852 29.7716C22.5853 29.5317 22.7813 29.3878 22.9773 29.2919C23.8101 28.7645 24.7408 28.429 25.7203 28.2855C28.0713 27.9507 30.275 28.3355 32.2335 29.6318C32.6742 29.8719 33.0169 30.1599 33.3105 30.5439ZM23.7607 29.6281C25.8663 30.4447 30.8616 31.0226 32.233 30.6394C30.5686 28.9114 25.8672 28.3336 23.7607 29.6281Z" fill="url(#paint6_linear_101_3781)"/>
<path d="M17.6856 24.9712C17.4408 24.8751 17.3429 24.6831 17.294 24.4432C16.5603 22.2358 16.1695 20.0285 16.1705 17.7254C16.1707 17.1497 16.171 16.5739 16.2202 16.0461C16.2203 15.7583 16.2694 15.4704 16.3675 15.1826C16.4166 14.8947 16.5636 14.6069 16.9065 14.5111C17.2982 14.7511 17.6409 15.1351 17.8856 15.5191C18.8644 17.0069 19.3045 18.6384 19.3527 20.4137C19.3522 21.7092 19.0578 22.9086 18.5186 24.0599C18.3225 24.4437 18.1264 24.8274 17.6856 24.9712ZM17.931 23.8197C18.5191 22.8124 18.7649 20.7014 18.4718 18.9739C18.2275 17.5824 17.4935 16.0947 16.8571 15.5666C16.5624 17.5337 17.05 22.4759 17.931 23.8197Z" fill="url(#paint7_linear_101_3781)"/>
<path d="M9.94413 33.7006C9.74815 33.8924 9.69915 33.9404 9.65015 33.9884C8.32753 34.6595 7.00498 35.1388 5.5356 35.426C4.50701 35.6655 3.47856 35.5691 2.45023 35.2328C1.81365 34.9926 1.27509 34.6085 0.883489 34.1285C0.394004 33.5046 0.296383 32.7368 0.492616 31.9692C0.590753 31.5374 0.933707 31.2497 1.37455 31.106C1.81539 30.9622 2.30514 30.9624 2.74584 31.1545C3.62727 31.4428 4.3617 31.9229 5.1451 32.4031C5.58576 32.6911 6.07536 33.0272 6.51604 33.2673C6.90776 33.4594 7.29948 33.6515 7.7402 33.7956C8.22989 33.9398 8.71962 33.988 9.20944 33.8442C9.40536 33.7963 9.60128 33.7484 9.94413 33.7006ZM7.39711 34.3712C7.34818 34.2753 7.29923 34.2273 7.25026 34.2272C6.51575 33.939 5.83026 33.5549 5.14479 33.1228C4.50826 32.7866 3.8717 32.4985 3.23514 32.2103C2.8434 32.0662 2.45163 31.9701 2.05983 31.9699C1.61903 32.0177 1.42307 32.1615 1.27598 32.5453C1.07985 33.073 1.27552 33.6009 1.76511 33.985C2.69533 34.7051 3.72374 34.8974 4.85021 34.802C5.58487 34.7543 6.31956 34.6107 7.05425 34.4671C7.15218 34.5151 7.29914 34.4192 7.39711 34.3712Z" fill="url(#paint8_linear_101_3781)"/>
<path d="M13.6642 37.5402C13.6151 37.7321 13.6151 37.924 13.566 38.0679C13.3699 38.6436 13.4676 39.2194 13.6632 39.7953C13.8589 40.3711 14.2015 40.8991 14.5441 41.427C14.9356 42.0029 15.3272 42.5789 15.6698 43.2028C15.9144 43.6347 16.1102 44.0666 16.2569 44.4985C16.3547 44.7864 16.4036 45.0743 16.3545 45.3622C16.2562 46.1778 15.8152 46.6574 14.8846 46.705C13.6602 46.7525 12.8279 46.2243 12.2406 45.2165C11.8491 44.5446 11.7025 43.8248 11.6538 43.0571C11.6541 42.4813 11.7033 41.8576 11.8505 41.2819C12.1938 40.0825 12.5861 38.9312 13.1743 37.8279C13.2234 37.6839 13.3214 37.54 13.4194 37.4441C13.5663 37.4922 13.6153 37.4922 13.6642 37.5402ZM13.0265 39.843C12.9775 39.9389 12.9285 40.0349 12.8795 40.1308C12.7322 40.8984 12.585 41.6661 12.5356 42.4337C12.4865 42.9135 12.5842 43.3934 12.682 43.8732C12.7797 44.449 13.0733 44.9769 13.4649 45.4569C13.8565 45.8889 14.3952 46.0331 14.934 45.8414C15.2769 45.7456 15.4239 45.5057 15.473 45.1699C15.5222 44.7381 15.4244 44.3062 15.2287 43.9223C14.9351 43.2504 14.5925 42.6265 14.25 42.0026C13.8585 41.3307 13.4669 40.7068 13.1734 39.987C13.1734 39.939 13.0755 39.891 13.0265 39.843Z" fill="url(#paint9_linear_101_3781)"/>
<path d="M19.4453 38.9346C19.4943 38.9825 19.4943 38.9825 19.5432 39.0304L19.5432 38.9825C19.4943 38.9825 19.4453 38.9824 19.4453 38.9346Z" fill="url(#paint10_linear_101_3781)"/>
<defs>
<linearGradient id="paint0_linear_101_3781" x1="2.10608" y1="16.2775" x2="16.1951" y2="16.2836" gradientUnits="userSpaceOnUse">
<stop stop-color="#FEF278"/>
<stop offset="1" stop-color="#BDA330"/>
</linearGradient>
<linearGradient id="paint1_linear_101_3781" x1="15.8867" y1="38.1823" x2="46.9372" y2="38.1957" gradientUnits="userSpaceOnUse">
<stop stop-color="#FEF278"/>
<stop offset="1" stop-color="#BDA330"/>
</linearGradient>
<linearGradient id="paint2_linear_101_3781" x1="16.947" y1="25.7297" x2="26.746" y2="25.7339" gradientUnits="userSpaceOnUse">
<stop stop-color="#FEF278"/>
<stop offset="1" stop-color="#BDA330"/>
</linearGradient>
<linearGradient id="paint3_linear_101_3781" x1="4.77117" y1="11.1008" x2="22.8126" y2="11.1086" gradientUnits="userSpaceOnUse">
<stop stop-color="#FEF278"/>
<stop offset="1" stop-color="#BDA330"/>
</linearGradient>
<linearGradient id="paint4_linear_101_3781" x1="28.3662" y1="33.6402" x2="45.3028" y2="33.6475" gradientUnits="userSpaceOnUse">
<stop stop-color="#FEF278"/>
<stop offset="1" stop-color="#BDA330"/>
</linearGradient>
<linearGradient id="paint5_linear_101_3781" x1="3.97078" y1="38.7707" x2="13.072" y2="38.7746" gradientUnits="userSpaceOnUse">
<stop stop-color="#FEF278"/>
<stop offset="1" stop-color="#BDA330"/>
</linearGradient>
<linearGradient id="paint6_linear_101_3781" x1="22.6205" y1="29.7383" x2="33.3246" y2="29.7429" gradientUnits="userSpaceOnUse">
<stop stop-color="#FEF278"/>
<stop offset="1" stop-color="#BDA330"/>
</linearGradient>
<linearGradient id="paint7_linear_101_3781" x1="16.1822" y1="19.745" x2="19.3563" y2="19.7464" gradientUnits="userSpaceOnUse">
<stop stop-color="#FEF278"/>
<stop offset="1" stop-color="#BDA330"/>
</linearGradient>
<linearGradient id="paint8_linear_101_3781" x1="0.404862" y1="33.3091" x2="9.95723" y2="33.3132" gradientUnits="userSpaceOnUse">
<stop stop-color="#FEF278"/>
<stop offset="1" stop-color="#BDA330"/>
</linearGradient>
<linearGradient id="paint9_linear_101_3781" x1="11.7649" y1="42.0926" x2="16.4299" y2="42.0946" gradientUnits="userSpaceOnUse">
<stop stop-color="#FEF278"/>
<stop offset="1" stop-color="#BDA330"/>
</linearGradient>
<linearGradient id="paint10_linear_101_3781" x1="19.4234" y1="38.9896" x2="19.5043" y2="38.9896" gradientUnits="userSpaceOnUse">
<stop stop-color="#FEF278"/>
<stop offset="1" stop-color="#BDA330"/>
</linearGradient>
</defs>
</svg>
