<svg width="47" height="47" viewBox="0 0 47 47" fill="none" xmlns="http://www.w3.org/2000/svg">
<path d="M44.346 46.248C44.346 46.0081 44.297 45.9122 44.297 45.7682C44.248 41.9778 43.0236 38.5232 40.7708 35.4524C39.4484 33.6291 37.8812 32.0458 36.265 30.5584C35.1386 29.4548 33.9632 28.3993 32.9837 27.1997C32.0531 26.0962 31.3675 24.8967 31.0247 23.5052C30.6328 21.8739 30.8287 20.2905 31.6123 18.8031C32.1511 17.7955 33.0326 17.1238 34.0611 16.596C35.5794 15.7803 37.2445 15.5884 38.9587 15.7804C40.33 15.9723 41.4564 16.596 42.338 17.6516C43.1216 18.5152 43.6113 19.5228 43.8562 20.6744C44.1501 22.1618 43.7093 23.4572 42.7788 24.5608C42.24 25.1845 41.5544 25.5684 40.7218 25.7123C39.4484 25.9043 38.273 25.6643 37.1955 24.9446C36.0691 24.1769 35.1386 22.3537 36.1671 20.4824C36.6568 19.5708 37.6363 19.139 38.8117 19.3309C38.6648 19.3789 38.5669 19.4269 38.4689 19.4749C37.4404 19.9067 36.8038 20.8183 36.8527 21.8739C36.9507 23.2173 37.5384 24.3689 38.7628 25.0886C39.1546 25.3285 39.5953 25.3285 39.9872 25.1366C40.6238 24.8007 41.1626 24.3209 41.5054 23.6972C41.8972 22.9774 42.0931 22.2577 42.0441 21.4421C41.8972 19.2829 40.7708 17.6996 38.8607 16.644C37.4894 15.8763 36.1671 16.1642 34.9427 17.2198C33.5714 18.3713 33.0326 19.8587 32.9347 21.586C32.8367 23.1214 33.2285 24.5608 34.0121 25.9043C34.7468 27.1517 35.6773 28.2553 36.7058 29.2629C37.4404 29.9826 38.1261 30.7023 38.8117 31.422C39.8402 32.4776 40.8197 33.5812 41.6523 34.7327C42.9257 36.46 43.9052 38.2833 44.4929 40.3464C44.8847 41.7858 44.9827 43.2732 44.9337 44.7606C44.8357 45.1925 44.7378 45.6723 44.346 46.248Z" fill="url(#paint0_linear_101_3749)"/>
<path d="M27.5465 8.24736C27.4975 8.48726 27.4975 8.72717 27.4486 8.96707C27.3016 9.8787 26.7629 10.5504 25.8813 10.8863C24.1672 11.606 22.2572 10.8863 21.3756 9.30294C20.9348 8.48727 20.7879 7.62361 20.8369 6.71198C20.8858 5.46448 21.5715 4.55285 22.6 3.88112C23.6285 3.20939 24.8039 2.96949 26.0772 3.2094C27.8404 3.54526 29.2607 4.50487 30.2402 5.99227C30.6809 6.61601 30.9258 7.33574 31.0238 8.10343C31.1707 9.44688 31.0238 10.7423 30.534 11.9898C30.1422 13.0454 29.4565 13.9571 28.624 14.6768C28.2811 14.9646 27.8893 15.2045 27.4975 15.3485C25.5875 16.1642 23.7264 16.1162 21.8164 15.3485C20.8858 14.9646 20.1022 14.4369 19.3186 13.8131C18.0453 12.8535 16.9678 11.702 15.8903 10.5504C14.4701 9.11101 13.0498 7.71957 11.3846 6.52006C8.25018 4.16901 4.67497 2.87353 0.707956 2.72959C0.512054 2.72959 0.316156 2.72959 0.0223026 2.68161C0.16923 2.53766 0.267185 2.4417 0.365137 2.39372C0.805916 2.2018 1.29567 2.15383 1.8344 2.10585C4.13625 2.05787 6.29116 2.48969 8.39711 3.4493C10.0133 4.21699 11.4336 5.12863 12.8539 6.1842C14.4211 7.38372 15.7924 8.77514 17.2127 10.1186C18.2901 11.1742 19.4656 12.1338 20.7879 12.8535C22.8449 14.005 25.0488 14.2449 27.3016 13.4772C28.624 12.9974 29.6035 12.1338 30.2891 10.9343C30.7299 10.1186 30.7789 9.25495 30.3871 8.3913C29.6035 6.66399 27.5955 4.9367 25.0977 4.98468C23.9223 4.98468 22.7959 5.36852 22.0123 6.28015C21.0328 7.47967 21.1307 7.86351 22.1102 8.8711C22.7959 9.59081 23.6775 9.92668 24.657 10.0706C25.7344 10.2146 26.7629 9.6388 27.2527 8.67918C27.3016 8.53524 27.3016 8.29534 27.5465 8.24736Z" fill="url(#paint1_linear_101_3749)"/>
<path d="M29.4102 16.6921C29.6061 16.884 29.851 17.1239 30.0469 17.3158C30.0469 17.4118 30.0469 17.5078 29.9979 17.6037C29.1653 19.7629 28.0879 21.778 26.8635 23.6973C26.4227 24.417 25.786 24.8968 25.0024 25.1847C23.778 25.6645 22.5536 25.9523 21.2803 26.1923C21.1333 26.1923 20.9864 26.2402 20.8885 26.2402C20.5946 26.2402 20.3007 25.9523 20.3007 25.6645C20.3007 25.4725 20.3008 25.2806 20.3497 25.0887C20.5456 23.9851 20.8395 22.8816 21.2313 21.826C21.5741 20.9144 22.1129 20.1947 22.9454 19.7149C24.9534 18.5154 27.0104 17.4118 29.2143 16.6441C29.2143 16.6921 29.2633 16.6921 29.4102 16.6921Z" fill="url(#paint2_linear_101_3749)"/>
<path d="M42.186 44.377C42.0391 44.185 41.9411 44.0891 41.8432 43.9451C41.2555 42.6017 40.276 41.5461 39.2964 40.4905C38.4639 39.6269 37.4354 39.0031 36.3089 38.5233C35.5253 38.2354 34.6928 37.9476 33.9091 37.7076C32.244 37.2278 30.6278 36.7001 29.0606 35.9324C28.3259 35.5485 27.6403 35.1647 26.9546 34.6369C25.8772 33.8212 25.1425 32.7657 24.6038 31.5661C24.163 30.5585 24.0161 29.503 24.4569 28.4474C24.5548 28.2075 24.6528 27.9676 24.9956 27.7757C24.9956 27.9196 25.0446 28.0156 25.0446 28.1595C24.7997 29.5509 25.2895 30.7025 26.0731 31.7581C26.7587 32.7177 27.7382 33.3894 28.7667 33.9652C29.9421 34.6369 31.2645 35.1167 32.5868 35.4526C33.3704 35.6445 34.105 35.8364 34.8887 36.0763C36.3089 36.4602 37.6313 37.1319 38.7577 38.1395C39.5903 38.9072 40.2759 39.7708 40.9126 40.6825C41.4024 41.4022 41.8432 42.1698 42.088 42.9855C42.186 43.4653 42.2839 43.8492 42.186 44.377Z" fill="url(#paint3_linear_101_3749)"/>
<path d="M1.68835 4.84046C2.37401 4.69651 2.81479 4.84047 3.25557 4.98441C4.08816 5.22431 4.82279 5.65613 5.50845 6.08796C6.53693 6.80766 7.56541 7.52737 8.34902 8.48699C9.23058 9.49458 9.76931 10.6461 10.1611 11.8936C10.406 12.6613 10.6019 13.429 10.7978 14.2447C11.2386 15.828 11.8263 17.3634 12.8058 18.7069C13.4425 19.6185 14.2261 20.4342 15.2056 20.9619C16.1851 21.4897 17.1646 21.7776 18.291 21.5857C18.389 21.5857 18.4869 21.5857 18.5849 21.5857C18.6828 21.7776 18.5359 21.8736 18.438 21.9216C17.9482 22.2574 17.4095 22.4014 16.8218 22.4014C16.0382 22.4014 15.3035 22.2574 14.5689 21.9216C12.9527 21.2019 11.7283 20.0983 10.8468 18.6109C10.0632 17.2674 9.42649 15.876 8.98571 14.3886C8.64288 13.285 8.30005 12.1815 7.90824 11.0779C7.51644 9.97438 6.92873 8.9668 6.14512 8.10315C5.55742 7.38344 4.77382 6.85564 4.08816 6.27987C3.50046 5.80007 2.86377 5.41623 2.22709 5.12834C2.08016 5.08036 1.9822 4.9844 1.68835 4.84046Z" fill="url(#paint4_linear_101_3749)"/>
<path d="M33.9637 12.9014C33.8168 12.5175 33.9637 12.2776 34.0616 12.0377C34.3555 11.4619 34.6493 10.8862 34.9922 10.3584C35.7758 9.06291 36.6084 7.76744 37.5879 6.6159C38.2735 5.80023 39.0082 5.03254 39.8897 4.45678C40.2815 4.16889 40.7223 4.07293 41.2121 4.02495C42.1916 3.92899 43.1221 4.84061 43.0241 5.75224C42.9752 6.37599 42.7303 6.90379 42.3385 7.33561C41.7018 8.1033 40.9672 8.77503 40.1836 9.39877C38.7633 10.5503 37.1471 11.4619 35.5799 12.3256C35.237 12.5175 34.8942 12.6615 34.5514 12.8054C34.3555 12.9014 34.1596 12.9014 33.9637 12.9014ZM34.8942 11.8938C34.9432 11.8938 34.9432 11.9418 34.9922 11.9418C35.4329 11.6539 35.8737 11.318 36.3635 11.0301C37.5389 10.2144 38.7633 9.44676 39.8897 8.53513C40.5754 7.95936 41.261 7.38359 41.7508 6.6159C41.9957 6.23206 42.1426 5.84821 42.1426 5.41639C42.1426 5.08052 41.9467 4.84062 41.6039 4.8886C41.1141 4.8886 40.6733 5.08052 40.2815 5.32042C39.8897 5.6083 39.4979 5.89619 39.1551 6.23205C38.6163 6.80782 38.0776 7.43158 37.5879 8.10331C36.7063 9.25484 35.8737 10.4544 35.0411 11.6539C34.9922 11.7018 34.9432 11.7978 34.8942 11.8938Z" fill="url(#paint5_linear_101_3749)"/>
<path d="M13.6884 16.6922C13.8354 16.3084 14.1292 16.2124 14.4231 16.1164C14.6679 16.0684 14.9618 16.0205 15.2556 16.0205C18.1942 15.8285 21.0837 16.1644 23.8753 17.076C24.1202 17.172 24.4141 17.172 24.4141 17.4599C24.4141 17.6998 24.2182 17.8437 24.0222 17.9397C23.1897 18.4675 22.2591 18.8033 21.2796 18.9473C18.9288 19.2831 16.7249 18.8993 14.7659 17.6038C14.3251 17.3639 13.9823 17.076 13.6884 16.6922ZM23.2386 17.6038C21.1327 16.7882 16.1372 16.2124 14.7659 16.5962C16.4311 18.3235 21.1327 18.8993 23.2386 17.6038Z" fill="url(#paint6_linear_101_3749)"/>
<path d="M29.3099 22.258C29.5548 22.354 29.6527 22.5459 29.7017 22.7858C30.4363 24.9929 30.8281 27.2 30.8281 29.5031C30.8281 30.0788 30.8281 30.6546 30.7792 31.1824C30.7792 31.4703 30.7302 31.7582 30.6322 32.046C30.5833 32.3339 30.4363 32.6218 30.0935 32.7178C29.7017 32.4779 29.3589 32.094 29.114 31.7102C28.1345 30.2228 27.6937 28.5914 27.6447 26.8162C27.6447 25.5207 27.9386 24.3212 28.4773 23.1696C28.6732 22.7858 28.8691 22.4019 29.3099 22.258ZM29.065 23.4095C28.4773 24.4171 28.2324 26.5283 28.5263 28.2556C28.7712 29.647 29.5058 31.1344 30.1425 31.6622C30.4363 29.695 29.9466 24.753 29.065 23.4095Z" fill="url(#paint7_linear_101_3749)"/>
<path d="M37.0469 13.5252C37.2428 13.3333 37.2918 13.2853 37.3407 13.2373C38.6631 12.5656 39.9854 12.0858 41.4547 11.7979C42.4832 11.558 43.5117 11.6539 44.5401 11.9898C45.1768 12.2297 45.7155 12.6136 46.1073 13.0934C46.5971 13.7171 46.6951 14.4848 46.4992 15.2525C46.4012 15.6843 46.0584 15.9722 45.6176 16.1161C45.1768 16.2601 44.6871 16.2601 44.2463 16.0682C43.3647 15.7803 42.6301 15.3005 41.8465 14.8207C41.4057 14.5328 40.916 14.1969 40.4752 13.957C40.0834 13.7651 39.6916 13.5732 39.2508 13.4292C38.761 13.2853 38.2713 13.2373 37.7815 13.3813C37.5856 13.4292 37.3897 13.4772 37.0469 13.5252ZM39.5936 12.8535C39.6426 12.9494 39.6916 12.9974 39.7405 12.9974C40.4752 13.2853 41.1608 13.6691 41.8465 14.101C42.4832 14.4368 43.1198 14.7247 43.7565 15.0126C44.1483 15.1565 44.5401 15.2525 44.9319 15.2525C45.3727 15.2045 45.5686 15.0606 45.7155 14.6767C45.9114 14.1489 45.7155 13.6212 45.2258 13.2373C44.2953 12.5176 43.2668 12.3257 42.1403 12.4216C41.4057 12.4696 40.6711 12.6136 39.9364 12.7575C39.8385 12.7095 39.6916 12.8055 39.5936 12.8535Z" fill="url(#paint8_linear_101_3749)"/>
<path d="M33.3279 9.68724C33.3769 9.49531 33.3769 9.30339 33.4259 9.15945C33.6218 8.58368 33.5238 8.00791 33.3279 7.43214C33.132 6.85637 32.7892 6.32859 32.4464 5.8008C32.0546 5.22503 31.6628 4.64928 31.3199 4.02553C31.0751 3.5937 30.8792 3.16187 30.7322 2.73004C30.6343 2.44216 30.5853 2.15428 30.6343 1.8664C30.7322 1.05073 31.173 0.570914 32.1036 0.522933C33.3279 0.474953 34.1605 1.00274 34.7482 2.01034C35.14 2.68206 35.287 3.40177 35.3359 4.16946C35.3359 4.74523 35.287 5.36899 35.14 5.94475C34.7972 7.14427 34.4054 8.29579 33.8177 9.39935C33.7687 9.54329 33.6708 9.68724 33.5728 9.7832C33.4259 9.73522 33.3769 9.73522 33.3279 9.68724ZM33.9646 7.38417C34.0136 7.28821 34.0626 7.19225 34.1116 7.09629C34.2585 6.32859 34.4054 5.5609 34.4544 4.79321C34.5034 4.3134 34.4054 3.83359 34.3075 3.35379C34.2095 2.77802 33.9156 2.25024 33.5238 1.77043C33.132 1.33861 32.5933 1.19467 32.0546 1.38659C31.7117 1.48255 31.5648 1.72246 31.5159 2.05832C31.4669 2.49014 31.5648 2.92197 31.7607 3.30582C32.0546 3.97755 32.3974 4.6013 32.7402 5.22504C33.132 5.89677 33.5238 6.52051 33.8177 7.24022C33.8177 7.2882 33.9157 7.33619 33.9646 7.38417Z" fill="url(#paint9_linear_101_3749)"/>
<path d="M27.5469 8.29492C27.4981 8.24734 27.4981 8.24734 27.4494 8.19976V8.24734C27.4981 8.24734 27.5469 8.24734 27.5469 8.29492Z" fill="url(#paint10_linear_101_3749)"/>
<defs>
<linearGradient id="paint0_linear_101_3749" x1="44.8951" y1="30.9452" x2="30.8061" y2="30.9452" gradientUnits="userSpaceOnUse">
<stop stop-color="#FEF278"/>
<stop offset="1" stop-color="#BDA330"/>
</linearGradient>
<linearGradient id="paint1_linear_101_3749" x1="31.1025" y1="9.04624" x2="0.0519812" y2="9.04624" gradientUnits="userSpaceOnUse">
<stop stop-color="#FEF278"/>
<stop offset="1" stop-color="#BDA330"/>
</linearGradient>
<linearGradient id="paint2_linear_101_3749" x1="30.0509" y1="21.4988" x2="20.2519" y2="21.4988" gradientUnits="userSpaceOnUse">
<stop stop-color="#FEF278"/>
<stop offset="1" stop-color="#BDA330"/>
</linearGradient>
<linearGradient id="paint3_linear_101_3749" x1="42.2253" y1="36.1228" x2="24.1838" y2="36.1228" gradientUnits="userSpaceOnUse">
<stop stop-color="#FEF278"/>
<stop offset="1" stop-color="#BDA330"/>
</linearGradient>
<linearGradient id="paint4_linear_101_3749" x1="18.63" y1="13.5932" x2="1.69345" y2="13.5932" gradientUnits="userSpaceOnUse">
<stop stop-color="#FEF278"/>
<stop offset="1" stop-color="#BDA330"/>
</linearGradient>
<linearGradient id="paint5_linear_101_3749" x1="43.0195" y1="8.45294" x2="33.9183" y2="8.45294" gradientUnits="userSpaceOnUse">
<stop stop-color="#FEF278"/>
<stop offset="1" stop-color="#BDA330"/>
</linearGradient>
<linearGradient id="paint6_linear_101_3749" x1="24.3788" y1="17.4931" x2="13.6747" y2="17.4931" gradientUnits="userSpaceOnUse">
<stop stop-color="#FEF278"/>
<stop offset="1" stop-color="#BDA330"/>
</linearGradient>
<linearGradient id="paint7_linear_101_3749" x1="30.8155" y1="27.4835" x2="27.6414" y2="27.4835" gradientUnits="userSpaceOnUse">
<stop stop-color="#FEF278"/>
<stop offset="1" stop-color="#BDA330"/>
</linearGradient>
<linearGradient id="paint8_linear_101_3749" x1="46.5863" y1="13.9126" x2="37.034" y2="13.9126" gradientUnits="userSpaceOnUse">
<stop stop-color="#FEF278"/>
<stop offset="1" stop-color="#BDA330"/>
</linearGradient>
<linearGradient id="paint9_linear_101_3749" x1="35.2253" y1="5.13402" x2="30.5603" y2="5.13402" gradientUnits="userSpaceOnUse">
<stop stop-color="#FEF278"/>
<stop offset="1" stop-color="#BDA330"/>
</linearGradient>
<linearGradient id="paint10_linear_101_3749" x1="27.5687" y1="8.24025" x2="27.4882" y2="8.24025" gradientUnits="userSpaceOnUse">
<stop stop-color="#FEF278"/>
<stop offset="1" stop-color="#BDA330"/>
</linearGradient>
</defs>
</svg>
