<svg width="32" height="32" viewBox="0 0 32 32" fill="none" xmlns="http://www.w3.org/2000/svg">
<g filter="url(#filter0_d_101_3649)">
<circle cx="16" cy="12" r="12" fill="#098948"/>
</g>
<path d="M13.3458 14.6547C11.9772 13.2835 10.9247 11.6299 10.262 9.80946C9.89733 8.81419 10.2314 7.72091 10.9811 6.97128L11.445 6.508C11.5697 6.38303 11.7178 6.28389 11.8809 6.21624C12.044 6.14859 12.2188 6.11377 12.3954 6.11377C12.5719 6.11377 12.7468 6.14859 12.9098 6.21624C13.0729 6.28389 13.2211 6.38303 13.3458 6.508L14.4321 7.59428C14.557 7.719 14.6562 7.86714 14.7238 8.03022C14.7915 8.1933 14.8263 8.36813 14.8263 8.54469C14.8263 8.72124 14.7915 8.89607 14.7238 9.05915C14.6562 9.22223 14.557 9.37038 14.4321 9.49509L14.1648 9.76237C14.0578 9.86933 13.9729 9.99631 13.915 10.1361C13.8571 10.2758 13.8273 10.4256 13.8273 10.5769C13.8273 10.7282 13.8571 10.878 13.915 11.0178C13.9729 11.1575 14.0578 11.2845 14.1648 11.3915L16.6084 13.8357C16.7154 13.9427 16.8424 14.0276 16.9821 14.0855C17.1219 14.1434 17.2717 14.1732 17.423 14.1732C17.5742 14.1732 17.724 14.1434 17.8638 14.0855C18.0036 14.0276 18.1305 13.9427 18.2375 13.8357L18.5054 13.5685C18.6301 13.4435 18.7783 13.3443 18.9414 13.2767C19.1044 13.209 19.2793 13.1742 19.4558 13.1742C19.6324 13.1742 19.8072 13.209 19.9703 13.2767C20.1334 13.3443 20.2815 13.4435 20.4062 13.5685L21.4925 14.6547C21.6175 14.7794 21.7166 14.9276 21.7843 15.0907C21.8519 15.2538 21.8867 15.4286 21.8867 15.6051C21.8867 15.7817 21.8519 15.9565 21.7843 16.1196C21.7166 16.2827 21.6175 16.4308 21.4925 16.5555L21.0292 17.0188C20.2796 17.7691 19.1863 18.1032 18.1911 17.7385C16.3706 17.0758 14.717 16.0233 13.3458 14.6547Z" stroke="white" stroke-width="1.5" stroke-linejoin="round"/>
<defs>
<filter id="filter0_d_101_3649" x="0" y="0" width="32" height="32" filterUnits="userSpaceOnUse" color-interpolation-filters="sRGB">
<feFlood flood-opacity="0" result="BackgroundImageFix"/>
<feColorMatrix in="SourceAlpha" type="matrix" values="0 0 0 0 0 0 0 0 0 0 0 0 0 0 0 0 0 0 127 0" result="hardAlpha"/>
<feOffset dy="4"/>
<feGaussianBlur stdDeviation="2"/>
<feComposite in2="hardAlpha" operator="out"/>
<feColorMatrix type="matrix" values="0 0 0 0 0 0 0 0 0 0 0 0 0 0 0 0 0 0 0.25 0"/>
<feBlend mode="normal" in2="BackgroundImageFix" result="effect1_dropShadow_101_3649"/>
<feBlend mode="normal" in="SourceGraphic" in2="effect1_dropShadow_101_3649" result="shape"/>
</filter>
</defs>
</svg>
