<svg width="32" height="32" viewBox="0 0 32 32" fill="none" xmlns="http://www.w3.org/2000/svg">
<g filter="url(#filter0_d_101_3653)">
<circle cx="16" cy="12" r="12" fill="#098948"/>
</g>
<g clip-path="url(#clip0_101_3653)">
<path d="M21.4545 6.48017C20.7876 5.80679 19.9934 5.27288 19.1181 4.90953C18.2428 4.54618 17.304 4.36067 16.3563 4.36381C12.3854 4.36381 9.149 7.60017 9.149 11.5711C9.149 12.8438 9.48355 14.0802 10.109 15.1711L9.09082 18.9093L12.909 17.9056C13.9635 18.4802 15.149 18.7856 16.3563 18.7856C20.3272 18.7856 23.5635 15.5493 23.5635 11.5784C23.5635 9.65108 22.8145 7.84017 21.4545 6.48017ZM16.3563 17.5638C15.2799 17.5638 14.2254 17.2729 13.3017 16.7274L13.0835 16.5965L10.8145 17.1929L11.4181 14.982L11.2726 14.7565C10.6745 13.8017 10.3569 12.6978 10.3563 11.5711C10.3563 8.26926 13.0472 5.57835 16.349 5.57835C17.949 5.57835 19.4545 6.20381 20.5817 7.33835C21.14 7.89389 21.5824 8.55475 21.8833 9.28259C22.1841 10.0104 22.3375 10.7908 22.3345 11.5784C22.349 14.8802 19.6581 17.5638 16.3563 17.5638ZM19.6435 13.0838C19.4617 12.9965 18.5745 12.5602 18.4145 12.4947C18.2472 12.4365 18.1308 12.4074 18.0072 12.582C17.8835 12.7638 17.5417 13.1711 17.4399 13.2874C17.3381 13.4111 17.229 13.4256 17.0472 13.3311C16.8654 13.2438 16.2835 13.0474 15.5999 12.4365C15.0617 11.9565 14.7054 11.3674 14.5963 11.1856C14.4945 11.0038 14.5817 10.9093 14.6763 10.8147C14.7563 10.7347 14.8581 10.6038 14.9454 10.502C15.0326 10.4002 15.069 10.3202 15.1272 10.2038C15.1854 10.0802 15.1563 9.97835 15.1126 9.89108C15.069 9.80381 14.7054 8.91654 14.5599 8.5529C14.4145 8.20381 14.2617 8.24744 14.1526 8.24017H13.8035C13.6799 8.24017 13.4908 8.28381 13.3235 8.46563C13.1635 8.64744 12.6981 9.08381 12.6981 9.97108C12.6981 10.8584 13.3454 11.7165 13.4326 11.8329C13.5199 11.9565 14.7054 13.7747 16.509 14.5529C16.9381 14.742 17.2726 14.8511 17.5345 14.9311C17.9635 15.0693 18.3563 15.0474 18.669 15.0038C19.0181 14.9529 19.7381 14.5674 19.8835 14.1456C20.0363 13.7238 20.0363 13.3674 19.9854 13.2874C19.9345 13.2074 19.8254 13.1711 19.6435 13.0838Z" fill="white"/>
</g>
<defs>
<filter id="filter0_d_101_3653" x="0" y="0" width="32" height="32" filterUnits="userSpaceOnUse" color-interpolation-filters="sRGB">
<feFlood flood-opacity="0" result="BackgroundImageFix"/>
<feColorMatrix in="SourceAlpha" type="matrix" values="0 0 0 0 0 0 0 0 0 0 0 0 0 0 0 0 0 0 127 0" result="hardAlpha"/>
<feOffset dy="4"/>
<feGaussianBlur stdDeviation="2"/>
<feComposite in2="hardAlpha" operator="out"/>
<feColorMatrix type="matrix" values="0 0 0 0 0 0 0 0 0 0 0 0 0 0 0 0 0 0 0.25 0"/>
<feBlend mode="normal" in2="BackgroundImageFix" result="effect1_dropShadow_101_3653"/>
<feBlend mode="normal" in="SourceGraphic" in2="effect1_dropShadow_101_3653" result="shape"/>
</filter>
<clipPath id="clip0_101_3653">
<rect width="15.2727" height="15.2727" fill="white" transform="translate(9.09082 4.36377)"/>
</clipPath>
</defs>
</svg>
