<svg width="16" height="21" viewBox="0 0 16 21" fill="none" xmlns="http://www.w3.org/2000/svg">
<path fill-rule="evenodd" clip-rule="evenodd" d="M8.247 19.2629C9.39711 18.2193 10.4615 17.085 11.43 15.8709C13.47 13.3079 14.711 10.7809 14.795 8.53395C14.8282 7.62074 14.6771 6.7102 14.3505 5.85673C14.024 5.00325 13.5288 4.22434 12.8945 3.56653C12.2602 2.90873 11.4998 2.38551 10.6588 2.02815C9.81775 1.67078 8.91331 1.4866 7.9995 1.4866C7.08569 1.4866 6.18125 1.67078 5.34022 2.02815C4.49918 2.38551 3.73881 2.90873 3.10451 3.56653C2.4702 4.22434 1.975 5.00325 1.64846 5.85673C1.32192 6.7102 1.17076 7.62074 1.204 8.53395C1.289 10.7809 2.531 13.3079 4.57 15.8709C5.53846 17.085 6.60289 18.2193 7.753 19.2629C7.86367 19.3629 7.946 19.4356 8 19.4809L8.247 19.2629ZM7.262 20.4279C7.262 20.4279 0 14.3119 0 8.29395C0 6.17221 0.842855 4.13738 2.34315 2.63709C3.84344 1.1368 5.87827 0.293945 8 0.293945C10.1217 0.293945 12.1566 1.1368 13.6569 2.63709C15.1571 4.13738 16 6.17221 16 8.29395C16 14.3119 8.738 20.4279 8.738 20.4279C8.334 20.7999 7.669 20.7959 7.262 20.4279ZM8 11.0939C8.74261 11.0939 9.4548 10.7989 9.9799 10.2738C10.505 9.74874 10.8 9.03655 10.8 8.29395C10.8 7.55134 10.505 6.83915 9.9799 6.31405C9.4548 5.78894 8.74261 5.49395 8 5.49395C7.25739 5.49395 6.5452 5.78894 6.0201 6.31405C5.495 6.83915 5.2 7.55134 5.2 8.29395C5.2 9.03655 5.495 9.74874 6.0201 10.2738C6.5452 10.7989 7.25739 11.0939 8 11.0939ZM8 12.2939C6.93913 12.2939 5.92172 11.8725 5.17157 11.1224C4.42143 10.3722 4 9.35481 4 8.29395C4 7.23308 4.42143 6.21566 5.17157 5.46552C5.92172 4.71537 6.93913 4.29395 8 4.29395C9.06087 4.29395 10.0783 4.71537 10.8284 5.46552C11.5786 6.21566 12 7.23308 12 8.29395C12 9.35481 11.5786 10.3722 10.8284 11.1224C10.0783 11.8725 9.06087 12.2939 8 12.2939Z" fill="#FFFCAD"/>
</svg>
