<svg width="148" height="113" viewBox="0 0 148 113" fill="none" xmlns="http://www.w3.org/2000/svg">
<rect width="148" height="112.858" fill="#0A4424"/>
<g clip-path="url(#clip0_654_238)">
<path d="M88.0723 14.1834C88.1155 14.219 88.1587 14.2546 88.2032 14.2912C89.3767 15.2639 90.5114 16.3399 91.4312 17.5609C91.5109 17.6635 91.5908 17.7659 91.6707 17.8683C95.4597 22.7494 97.1497 28.8785 96.4681 35.031C96.1797 37.3439 95.5656 39.5443 94.6339 41.6749C94.6063 41.7385 94.5788 41.802 94.5504 41.8675C93.5925 44.0523 92.256 46.0138 90.6595 47.7749C90.5088 47.9421 90.3618 48.1117 90.2155 48.2827C89.749 48.8199 89.2402 49.3073 88.6972 49.7653C88.6549 49.801 88.6126 49.8368 88.5691 49.8736C87.4316 50.8309 86.2445 51.7087 84.9477 52.4359C84.8835 52.4719 84.8193 52.508 84.7531 52.5451C82.049 54.0467 79.1142 54.9964 76.0426 55.3422C75.953 55.3533 75.953 55.3533 75.8616 55.3646C75.1029 55.448 74.3393 55.4398 73.5771 55.4403C73.5023 55.4404 73.4275 55.4404 73.3505 55.4405C72.149 55.4391 70.9804 55.3872 69.7934 55.1851C69.714 55.172 69.6347 55.1589 69.553 55.1455C65.1743 54.4046 61.1877 52.3682 57.9199 49.3726C57.7848 49.2514 57.6498 49.1303 57.5147 49.0093C56.988 48.5318 56.5016 48.0331 56.0451 47.4874C56.0095 47.4448 55.9738 47.4022 55.9371 47.3582C53.0474 43.8867 51.2063 39.8042 50.5771 35.3126C50.5679 35.249 50.5588 35.1855 50.5494 35.12C50.2851 33.1955 50.2985 31.1074 50.5771 29.1859C50.5872 29.1157 50.5972 29.0456 50.6076 28.9733C51.1993 24.9906 52.7295 21.0981 55.264 17.9536C55.3207 17.8815 55.3774 17.8095 55.4358 17.7352C56.4641 16.4431 57.6303 15.1934 58.9354 14.1834C59.0359 14.1036 59.1364 14.0239 59.2369 13.944C65.1545 9.27886 72.8974 7.88589 88.0723 14.1834ZM60.4196 15.7543C60.3442 15.814 60.2687 15.8736 60.191 15.935C59.6026 16.4162 59.0628 16.945 58.5253 17.4824C58.4532 17.5541 58.3811 17.6259 58.3068 17.6998C57.1096 18.9092 56.0864 20.31 55.264 21.8025C55.2279 21.8677 55.1917 21.933 55.1545 22.0002C52.4998 26.8394 51.7494 32.6237 53.2797 37.9583C54.0269 40.4485 55.1305 42.728 56.6701 44.8168C56.7056 44.8651 56.7411 44.9134 56.7777 44.9631C57.3416 45.7224 57.969 46.4134 58.6229 47.0947C58.6932 47.1686 58.7635 47.2425 58.8359 47.3187C59.2835 47.7802 59.7607 48.1877 60.2633 48.5871C60.347 48.6556 60.4306 48.7243 60.5142 48.793C63.5254 51.2492 67.2776 52.7766 71.1213 53.2214C71.175 53.2287 71.2287 53.236 71.284 53.2435C71.9974 53.3308 72.718 53.3191 73.4355 53.3196C73.5427 53.3196 73.5427 53.3196 73.652 53.3197C74.7766 53.3184 75.8717 53.2713 76.9799 53.0643C77.088 53.0447 77.088 53.0447 77.1983 53.0247C79.0777 52.6745 80.8804 52.0861 82.6042 51.2577C82.6687 51.2267 82.7332 51.1958 82.7996 51.1639C84.2126 50.4743 85.5287 49.5852 86.7443 48.5871C86.8077 48.5353 86.8077 48.5353 86.8724 48.4825C87.9441 47.6014 88.9465 46.6287 89.7908 45.5237C89.8681 45.4264 89.9455 45.3292 90.023 45.2319C90.6962 44.3782 91.2759 43.4795 91.8218 42.5389C91.8548 42.4823 91.8878 42.4256 91.9218 42.3673C94.6035 37.7014 95.1268 31.924 93.7942 26.7597C93.0345 23.9343 91.6925 21.3286 89.8689 19.0533C89.8098 18.9778 89.7507 18.9022 89.6898 18.8244C88.716 17.6196 87.5794 16.4413 86.3244 15.5332C86.1929 15.4367 86.0647 15.3368 85.9366 15.2358C79.968 10.5922 71.5414 9.92654 60.4196 15.7543Z" fill="#D1B54D"/>
<path d="M69.0859 66.0254C70.4522 66.0254 71.8184 66.0254 73.226 66.0254C73.9383 67.9297 74.6488 69.8343 75.3449 71.7446C75.8277 73.0694 76.3136 74.3928 76.8039 75.7147C77.1012 76.5161 77.397 77.318 77.6914 78.1204C77.7613 78.3108 77.8312 78.5011 77.9011 78.6914C78.0032 78.9695 78.1052 79.2475 78.207 79.5257C78.5278 80.4021 78.8507 81.2773 79.1939 82.1451C79.2188 82.2083 79.2437 82.2716 79.2694 82.3368C79.6423 83.3034 79.6423 83.3034 80.4126 83.9342C80.7594 83.9342 80.942 83.7676 81.1937 83.5414C81.7859 82.7065 82.1322 81.7183 82.5046 80.772C82.5705 80.6065 82.6364 80.4409 82.7024 80.2754C82.8797 79.8303 83.056 79.3847 83.2321 78.9391C83.4166 78.473 83.6019 78.0073 83.7872 77.5415C84.0954 76.7664 84.4031 75.9911 84.7104 75.2157C85.1697 74.0567 85.6302 72.8983 86.0912 71.74C86.1276 71.6485 86.164 71.557 86.2015 71.4628C86.2376 71.3722 86.2736 71.2816 86.3107 71.1883C86.3465 71.0986 86.3822 71.0088 86.419 70.9163C86.49 70.7378 86.5611 70.5592 86.6321 70.3807C86.8732 69.775 87.1139 69.1691 87.3546 68.5633C87.4494 68.3246 87.5443 68.0858 87.6392 67.8471C87.6986 67.6974 87.7581 67.5477 87.8175 67.3979C87.8982 67.1946 87.979 66.9913 88.0598 66.788C88.0835 66.7283 88.1071 66.6686 88.1315 66.6071C88.2933 66.2004 88.2933 66.2004 88.3803 66.0254C89.695 66.0254 91.0097 66.0254 92.3642 66.0254C92.3642 73.4905 92.3642 80.9557 92.3642 88.647C91.0495 88.647 89.7348 88.647 88.3803 88.647C88.3545 82.3742 88.3288 76.1014 88.3022 69.6386C86.5302 74.0919 86.5302 74.0919 84.7698 78.5498C84.5329 79.152 84.2953 79.754 84.0575 80.3559C83.9962 80.5109 83.935 80.666 83.8737 80.8211C83.8536 80.872 83.8335 80.923 83.8127 80.9755C83.7723 81.078 83.7318 81.1804 83.6913 81.2829C83.5939 81.5296 83.4964 81.7762 83.3989 82.0229C83.0131 82.9981 82.6279 83.9732 82.2636 84.9568C81.8741 85.9996 81.4308 86.9954 80.7251 87.8615C80.675 87.9285 80.625 87.9954 80.5734 88.0644C80.2742 88.4178 79.8852 88.6745 79.4288 88.7664C78.87 88.7898 78.4825 88.6222 78.0551 88.2718C76.6621 86.9704 76.0068 84.9428 75.3742 83.1929C75.3114 83.0212 75.2486 82.8496 75.1857 82.678C75.0487 82.3041 74.9121 81.9301 74.7757 81.556C74.5411 80.9129 74.304 80.2706 74.0667 79.6285C74.0456 79.5714 74.0244 79.5142 74.0027 79.4553C73.9164 79.2221 73.8302 78.9888 73.7439 78.7555C73.6028 78.3739 73.4618 77.9921 73.3209 77.6104C72.4847 75.3449 71.6441 73.081 70.8045 70.8168C70.7787 76.7008 70.7529 82.5847 70.7264 88.647C70.185 88.647 69.6437 88.647 69.0859 88.647C69.0859 81.1819 69.0859 73.7167 69.0859 66.0254Z" fill="white"/>
<path d="M32.4585 68.6476C34.4217 70.4767 35.7492 73.1292 35.8941 75.844C35.8986 76.0156 35.9007 76.1871 35.9017 76.3588C35.9021 76.4225 35.9025 76.4861 35.903 76.5517C35.9037 76.6864 35.9043 76.8211 35.9046 76.9557C35.9053 77.1564 35.9077 77.3569 35.9102 77.5575C35.9179 78.7412 35.7968 79.9112 35.4366 81.0434C35.4165 81.1081 35.3964 81.1728 35.3757 81.2395C34.9156 82.6786 34.2157 83.9671 33.2299 85.1131C33.1773 85.1764 33.1248 85.2397 33.0706 85.3049C31.5875 87.0375 29.498 88.1584 27.2931 88.6477C27.2073 88.667 27.2073 88.667 27.1197 88.6867C25.3829 89.0565 23.3998 89.0366 21.6689 88.6477C21.61 88.6347 21.5512 88.6216 21.4905 88.6082C19.8058 88.2189 18.2103 87.4331 16.9039 86.2913C16.839 86.2356 16.7742 86.18 16.7074 86.1226C14.456 84.1434 13.2522 81.2602 13.0291 78.2927C12.8461 75.219 13.5064 71.9782 15.5643 69.6052C15.6714 69.4847 15.7796 69.3655 15.8884 69.2466C15.9501 69.178 16.0118 69.1095 16.0754 69.0388C20.2513 64.617 28.0342 64.7602 32.4585 68.6476ZM21.6689 67.5971C21.598 67.633 21.5271 67.669 21.4541 67.706C19.6339 68.6902 18.2378 70.7609 17.6313 72.7188C16.9629 75.0231 16.7299 77.7333 17.2944 80.0861C17.3125 80.1636 17.3305 80.2412 17.3491 80.3211C17.9575 82.8853 19.0162 85.4662 21.3335 86.9231C22.8159 87.8075 24.5301 87.973 26.1852 87.5505C27.2447 87.2271 28.0668 86.6683 28.8554 85.8986C28.9081 85.8514 28.9608 85.8042 29.015 85.7556C30.8337 84.0692 31.7639 80.9171 31.9019 78.5151C31.9163 78.1043 31.9211 77.6939 31.9215 77.2829C31.9215 77.2256 31.9216 77.1682 31.9216 77.1092C31.9174 74.2135 31.2189 71.6027 29.4023 69.3251C29.3293 69.2322 29.3293 69.2322 29.2549 69.1373C28.2911 67.9752 26.8465 67.1242 25.3403 66.9687C24.0536 66.8796 22.8245 66.9767 21.6689 67.5971Z" fill="white"/>
<path d="M123.848 65.6328C123.899 65.6328 123.951 65.6328 124.004 65.6328C125.223 68.4029 126.438 71.1746 127.64 73.9518C128.131 75.0851 128.625 76.217 129.119 77.3486C129.178 77.4827 129.236 77.6168 129.295 77.7509C129.323 77.8162 129.352 77.8815 129.381 77.9488C129.668 78.6062 129.955 79.264 130.241 79.9219C130.57 80.6798 130.901 81.4372 131.231 82.1945C131.742 83.3631 132.252 84.5318 132.76 85.7015C132.816 85.8298 132.872 85.958 132.928 86.0862C133.006 86.2656 133.084 86.4451 133.162 86.6246C133.183 86.6745 133.205 86.7243 133.227 86.7757C133.496 87.3956 133.747 88.0216 134.003 88.6472C132.559 88.6472 131.116 88.6472 129.628 88.6472C129.242 87.74 128.855 86.8327 128.457 85.898C128.112 86.0367 127.844 86.1981 127.544 86.4086C124.965 88.1705 121.744 89.1929 118.602 88.7674C117.736 88.5933 116.98 88.1665 116.427 87.469C115.84 86.547 115.784 85.3731 115.969 84.3193C116.197 83.2777 116.619 82.292 117.052 81.3228C117.175 81.0466 117.297 80.7698 117.419 80.493C117.484 80.3462 117.549 80.1995 117.614 80.0527C117.946 79.3006 118.273 78.5457 118.599 77.7905C118.763 77.4097 118.927 77.0289 119.092 76.6482C119.14 76.5365 119.14 76.5365 119.189 76.4227C119.51 75.6813 119.831 74.9403 120.152 74.1994C120.179 74.1372 120.206 74.0749 120.234 74.0108C120.369 73.6993 120.504 73.3877 120.639 73.0761C120.804 72.6969 120.968 72.3176 121.132 71.9384C121.16 71.875 121.187 71.8116 121.216 71.7462C121.354 71.4282 121.491 71.1101 121.629 70.792C121.887 70.1979 122.144 69.6039 122.402 69.01C122.523 68.7318 122.644 68.4535 122.765 68.1753C122.822 68.0436 122.879 67.9119 122.936 67.7803C123.246 67.067 123.554 66.3529 123.848 65.6328ZM122.364 71.838C120.703 76.0602 120.703 76.0602 119.708 80.4783C119.7 80.5284 119.693 80.5786 119.685 80.6303C119.617 81.1581 119.612 81.6866 119.611 82.2184C119.61 82.3765 119.608 82.5344 119.605 82.6925C119.6 83.9479 119.812 85.0024 120.65 85.9618C121.191 86.4631 122.022 86.8511 122.754 86.9191C122.831 86.9264 122.908 86.9337 122.988 86.9412C124.713 87.0213 126.373 86.1973 127.675 85.1125C127.781 84.9831 127.886 84.8524 127.988 84.7198C127.176 82.8056 126.353 80.896 125.527 78.9879C125.254 78.3591 124.983 77.73 124.712 77.1007C124.672 77.0087 124.633 76.9168 124.592 76.822C124.514 76.6406 124.436 76.4592 124.358 76.2778C124.144 75.7813 123.93 75.2849 123.716 74.7885C123.695 74.7397 123.674 74.6908 123.652 74.6405C123.25 73.706 122.846 72.7719 122.442 71.838C122.416 71.838 122.39 71.838 122.364 71.838Z" fill="white"/>
<path d="M42.5312 66.0254C48.2282 66.0254 53.9251 66.0254 59.7946 66.0254C59.0841 67.4544 59.0841 67.4544 58.7352 68.0529C58.3673 68.6924 58.0072 69.3358 57.6514 69.9822C57.2881 70.6417 56.9228 71.2999 56.5529 71.9557C56.1848 72.6083 55.821 73.2632 55.4593 73.9194C55.0569 74.6492 54.6511 75.3769 54.2418 76.1028C53.9154 76.6823 53.5932 77.2642 53.272 77.8468C52.8677 78.5803 52.46 79.3118 52.0489 80.0415C51.6014 80.8359 51.1582 81.6326 50.715 82.4294C50.4869 82.8395 50.2586 83.2494 50.0303 83.6593C49.9401 83.8213 49.8498 83.9833 49.7596 84.1453C49.5682 84.4889 49.3768 84.8326 49.1854 85.1762C49.1364 85.2641 49.0874 85.3521 49.0369 85.4427C48.9438 85.6099 48.8506 85.7771 48.7574 85.9443C48.5038 86.3996 48.251 86.8554 47.9993 87.3117C49.0406 87.3233 50.0791 87.2914 51.1196 87.2535C51.4161 87.2427 51.7125 87.2323 52.009 87.2218C52.6383 87.1997 53.2676 87.1772 53.897 87.1546C54.6272 87.1284 55.3574 87.1024 56.0876 87.0768C56.3774 87.0665 56.6671 87.056 56.9568 87.0454C57.9035 87.0117 58.8473 86.9899 59.7946 86.9975C59.7946 87.5419 59.7946 88.0862 59.7946 88.647C54.0977 88.647 48.4008 88.647 42.5312 88.647C42.6369 88.3813 42.7374 88.1492 42.8721 87.9014C42.9086 87.8341 42.9452 87.7667 42.9828 87.6973C43.0223 87.6252 43.0618 87.553 43.1025 87.4786C43.1648 87.3642 43.1648 87.3642 43.2284 87.2475C43.5622 86.6367 43.9022 86.0296 44.2444 85.4235C44.5751 84.8373 44.9013 84.2487 45.2262 83.6593C45.6306 82.9257 46.0382 82.1942 46.4494 81.4645C46.8968 80.6701 47.34 79.8734 47.7832 79.0766C48.0113 78.6666 48.2397 78.2567 48.468 77.8468C48.5591 77.6831 48.6503 77.5195 48.7414 77.3558C50.1084 74.9012 50.1084 74.9012 51.4754 72.4466C51.5205 72.3656 51.5657 72.2846 51.6121 72.2011C51.7031 72.0377 51.7942 71.8743 51.8852 71.7109C52.1152 71.2981 52.345 70.8851 52.5745 70.4719C53.1527 69.4314 53.7368 68.3946 54.3266 67.3607C52.7619 67.3987 51.1975 67.4427 49.6333 67.4985C49.5608 67.501 49.4883 67.5036 49.4136 67.5063C48.7441 67.53 48.0747 67.554 47.4053 67.5785C45.7796 67.6379 44.1583 67.6899 42.5312 67.6749C42.5312 67.1306 42.5312 66.5862 42.5312 66.0254Z" fill="white"/>
<path d="M80.7958 25.1373C81.1999 25.3405 81.3517 25.6567 81.4948 26.0777C81.7057 26.9732 81.5484 27.9386 81.1046 28.7357C80.5354 29.5966 79.8369 30.1881 78.8411 30.4684C78.4793 30.5337 78.131 30.5538 77.7639 30.557C77.6719 30.5582 77.6719 30.5582 77.578 30.5595C76.5959 30.5452 75.6902 30.2391 74.7858 29.8796C74.6865 29.8409 74.5872 29.8023 74.4879 29.7639C74.0443 29.5917 73.6019 29.4163 73.1597 29.2405C72.5064 28.9825 71.8568 28.7454 71.1779 28.5639C71.1193 28.5482 71.0606 28.5325 71.0003 28.5164C69.0227 28.0169 67.0572 28.4166 65.3095 29.4181C63.1261 30.8082 62.0266 32.9502 61.4507 35.4156C61.4075 35.6438 61.378 35.8684 61.3549 36.0995C61.3394 36.2519 61.3394 36.2519 61.3235 36.4073C61.1028 38.9811 61.713 41.7993 63.3322 43.8512C63.4277 43.9645 63.5237 44.0774 63.6203 44.1899C63.6672 44.2528 63.7141 44.3157 63.7625 44.3804C64.3143 45.0358 65.0846 45.555 65.8856 45.8394C65.9362 45.8584 65.9869 45.8775 66.0391 45.8971C66.3841 46.0056 66.7178 46.0022 67.0778 45.9999C67.2256 45.9991 67.2256 45.9991 67.3764 45.9984C67.4515 45.9978 67.5267 45.9971 67.6041 45.9965C67.6048 45.8933 67.6054 45.7901 67.606 45.6838C67.6121 44.7085 67.619 43.7332 67.6266 42.7579C67.6305 42.2565 67.6341 41.7552 67.6371 41.2539C67.64 40.7695 67.6436 40.2852 67.6477 39.8008C67.6492 39.6166 67.6503 39.4323 67.6513 39.2481C67.6526 38.9889 67.6549 38.7297 67.6573 38.4705C67.6575 38.3953 67.6577 38.3201 67.6578 38.2426C67.6772 36.6468 67.6772 36.6468 68.229 36.0995C68.7498 35.6784 69.2644 35.6121 69.9122 35.592C70.1819 35.6283 70.1819 35.6283 71.0412 35.9424C71.0412 39.4936 71.0412 43.0447 71.0412 46.7034C63.1621 46.7034 63.1621 46.7034 60.449 43.9882C58.6465 42.1367 57.8974 39.6063 57.8984 37.0599C57.9219 34.9128 58.4751 32.6693 59.8707 30.994C59.9511 30.8955 59.9511 30.8955 60.0331 30.7951C61.7635 28.7673 64.3711 27.6849 66.9792 27.4593C69.4067 27.2978 71.5884 27.8529 73.7956 28.7983C76.4111 30.0005 76.4111 30.0005 79.1651 29.7372C79.7715 29.4248 80.1502 28.8583 80.4055 28.2341C80.6387 27.4256 80.4756 26.6839 80.0912 25.9544C79.9958 25.748 80.0321 25.6295 80.1025 25.4171C80.3003 25.164 80.4726 25.0878 80.7958 25.1373Z" fill="#D1B54D"/>
<path d="M75.9594 17.7964C76.5536 17.7908 77.1479 17.7867 77.7423 17.7842C78.0184 17.783 78.2945 17.7813 78.5707 17.7786C81.6273 17.7494 84.2441 18.2185 86.5146 20.4375C88.2912 22.2334 89.0905 24.7218 89.112 27.2171C89.0972 29.3682 88.5913 31.5324 87.286 33.2702C87.2284 33.3483 87.1708 33.4263 87.1115 33.5068C85.5927 35.4557 83.0712 36.6291 80.6622 36.942C77.9124 37.2605 75.5038 36.6353 72.9959 35.5745C70.6646 34.4951 70.6646 34.4951 68.1967 34.576C67.4176 34.9446 66.9066 35.4706 66.5953 36.2844C66.3809 37.0283 66.5008 37.6825 66.8199 38.3758C66.8972 38.4924 66.8972 38.4924 66.9761 38.6114C66.9651 38.8788 66.9463 39.0288 66.7662 39.23C66.5243 39.3483 66.3831 39.362 66.1169 39.3183C65.6904 38.9992 65.5472 38.5916 65.4523 38.0858C65.3198 37.0218 65.6278 36.1042 66.224 35.2348C66.8553 34.4238 67.7799 34.0375 68.7728 33.8986C70.5862 33.7587 72.2857 34.5814 73.9235 35.2535C75.8804 36.0563 78.0431 36.5152 80.0994 35.7837C80.1493 35.7665 80.1992 35.7492 80.2505 35.7314C82.1922 35.0498 83.7086 33.6178 84.6301 31.7778C85.887 29.0891 86.0519 26.0704 85.0959 23.2493C85.003 22.9975 84.8987 22.7528 84.7863 22.5092C84.7614 22.455 84.7364 22.4008 84.7107 22.345C83.9601 20.7536 82.8784 19.4271 81.2712 18.6604C80.8688 18.5201 80.4962 18.473 80.075 18.4542C80.0192 18.4512 79.9634 18.4481 79.9058 18.445C79.7099 18.4346 79.5145 18.4248 79.3183 18.4248C79.3186 18.528 79.319 18.6312 79.3193 18.7375C79.3225 19.7128 79.3249 20.6881 79.3264 21.6634C79.3272 22.1647 79.3283 22.6661 79.3301 23.1674C79.3318 23.6517 79.3327 24.1361 79.3331 24.6204C79.3334 24.8047 79.334 24.9889 79.3348 25.1732C79.336 25.4324 79.3361 25.6916 79.336 25.9508C79.3366 26.026 79.3372 26.1012 79.3377 26.1787C79.3353 26.9844 79.3088 27.7712 78.726 28.3702C78.2793 28.7655 77.7932 28.8515 77.2092 28.8715C76.7443 28.8368 76.3381 28.7654 75.9594 28.4788C75.9113 28.283 75.9113 28.283 75.9124 28.0449C75.9119 27.9547 75.9113 27.8645 75.9108 27.7716C75.9122 27.6725 75.9136 27.5735 75.915 27.4714C75.9151 27.3662 75.9151 27.2609 75.9148 27.1556C75.9147 26.8696 75.917 26.5838 75.9198 26.2978C75.9222 25.9991 75.9224 25.7003 75.9229 25.4015C75.9241 24.8357 75.9273 24.2699 75.9312 23.7041C75.9356 23.0599 75.9377 22.4158 75.9397 21.7717C75.9438 20.4465 75.9507 19.1215 75.9594 17.7964Z" fill="#D1B54D"/>
<path d="M102.523 66.0254C103.864 66.0254 105.204 66.0254 106.585 66.0254C106.585 73.4905 106.585 80.9557 106.585 88.647C105.245 88.647 103.905 88.647 102.523 88.647C102.523 81.1819 102.523 73.7167 102.523 66.0254Z" fill="white"/>
<path d="M104.32 52.75C104.501 53.0233 104.512 53.2388 104.539 53.5551C104.692 54.9726 105.273 56.2322 106.386 57.1493C106.578 57.2894 106.773 57.4175 106.976 57.5414C107.034 57.5776 107.092 57.6139 107.152 57.6512C108.008 58.1325 109.054 58.2894 110.022 58.3269C110.022 58.3528 110.022 58.3787 110.022 58.4054C109.979 58.4101 109.936 58.4147 109.891 58.4196C108.263 58.6037 106.725 58.9837 105.635 60.3203C104.927 61.3346 104.546 62.4217 104.497 63.665C104.476 63.8252 104.476 63.8252 104.32 63.9823C104.312 63.892 104.304 63.8018 104.296 63.7089C104.161 62.2471 103.792 60.8513 102.679 59.8193C101.525 58.8779 100.223 58.5493 98.7734 58.4054C98.7734 58.3795 98.7734 58.3536 98.7734 58.3269C98.8632 58.3192 98.9529 58.3115 99.0453 58.3035C100.655 58.1533 102.017 57.6872 103.127 56.4472C103.974 55.3871 104.274 54.0816 104.32 52.75Z" fill="white"/>
<path d="M91 96C91.4667 96.113 91.5631 96.2904 91.8033 96.6614C91.8613 96.748 91.8613 96.748 91.9204 96.8364C92.0441 97.0218 92.1662 97.2081 92.2883 97.3945C92.3693 97.5164 92.4504 97.6382 92.5316 97.76C92.8342 98.2149 93.1354 98.6705 93.4286 99.1312C93.4888 99.2254 93.549 99.3197 93.611 99.4167C93.6632 99.4997 93.7153 99.5826 93.7691 99.668C93.8134 99.726 93.8576 99.784 93.9032 99.8438C93.9671 99.8438 94.031 99.8438 94.0968 99.8438C94.2425 99.6375 94.3762 99.4313 94.5081 99.2168C94.9186 98.5642 95.3459 97.9244 95.7843 97.2891C95.8426 97.2043 95.901 97.1195 95.9611 97.0321C96.2719 96.5822 96.2719 96.5822 96.4194 96.375C96.4912 96.2694 96.4912 96.2694 96.5645 96.1616C96.6364 96.0816 96.6364 96.0816 96.7097 96C96.8055 96 96.9013 96 97 96C97 97.98 97 99.96 97 102C96.6168 102 96.2335 102 95.8387 102C95.8068 101.134 95.7748 100.268 95.7419 99.375C95.2729 100.103 95.2729 100.103 94.8039 100.831C94.7455 100.921 94.687 101.012 94.6268 101.105C94.567 101.198 94.5072 101.291 94.4455 101.387C94.3318 101.561 94.2151 101.734 94.0968 101.906C93.7261 101.787 93.6855 101.663 93.4885 101.342C93.4292 101.246 93.3699 101.15 93.3088 101.052C93.2475 100.951 93.1862 100.85 93.123 100.746C93.0009 100.548 92.8788 100.35 92.7567 100.152C92.7028 100.064 92.6489 99.9756 92.5933 99.8846C92.4862 99.712 92.3734 99.5426 92.2581 99.375C92.2261 100.241 92.1942 101.107 92.1613 102C91.7781 102 91.3948 102 91 102C91 100.02 91 98.04 91 96Z" fill="white"/>
<path d="M29.0366 96.6289C29.2146 96.7855 29.2146 96.7855 29.3256 96.906C29.1971 97.2379 29.0405 97.5299 28.844 97.8296C28.5955 97.7153 28.3585 97.5888 28.1215 97.4544C27.6499 97.1967 27.274 97.1392 26.7246 97.1831C26.1304 97.366 25.7212 97.7053 25.3759 98.199C25.1991 98.7076 25.1693 99.3016 25.3669 99.8085C25.6698 100.303 26.0561 100.602 26.6282 100.785C27.247 100.834 27.7242 100.828 28.266 100.508C28.3295 100.508 28.3931 100.508 28.4586 100.508C28.5004 100.405 28.5004 100.405 28.5429 100.3C28.6334 100.088 28.7372 99.8817 28.844 99.6768C28.2399 99.6768 27.6359 99.6768 27.0136 99.6768C27.0136 99.3416 27.0136 99.0063 27.0136 98.6608C27.9991 98.6608 28.9846 98.6608 30 98.6608C30 99.6977 29.9754 100.519 29.2143 101.293C28.4376 101.899 27.6014 102.052 26.6282 101.986C25.7977 101.857 25.1526 101.481 24.6221 100.855C24.0467 100.063 23.9391 99.3399 24.0272 98.3838C24.2347 97.5587 24.7053 96.8717 25.4481 96.4095C26.6991 95.7506 27.8498 95.9326 29.0366 96.6289Z" fill="white"/>
<path d="M36.7982 96.5943C37.5111 97.1791 37.9037 97.848 37.9968 98.7658C38.0352 99.6777 37.7236 100.423 37.1277 101.103C36.4202 101.731 35.7089 102.021 34.7553 101.999C33.7896 101.896 33.1717 101.421 32.5327 100.729C32.0427 100.002 31.9026 99.2318 32.0637 98.3789C32.282 97.5341 32.6718 96.9182 33.3917 96.4129C34.4929 95.8105 35.7752 95.8641 36.7982 96.5943ZM33.4047 97.9504C33.0891 98.407 33.0404 98.852 33.1121 99.3955C33.3124 100.057 33.7552 100.47 34.3397 100.809C34.9296 100.95 35.4374 100.923 35.9707 100.622C36.3882 100.321 36.7546 99.9035 36.8753 99.3955C36.9492 98.7955 36.8628 98.3271 36.5082 97.8322C36.0558 97.3373 35.6299 97.1271 34.9593 97.062C34.285 97.084 33.8086 97.4302 33.4047 97.9504Z" fill="white"/>
<path d="M103.972 96.6587C104.629 97.2781 104.967 98.0699 105 98.9571C104.976 99.8236 104.731 100.539 104.125 101.171C103.452 101.751 102.662 102.021 101.776 101.999C100.864 101.913 100.243 101.528 99.6135 100.885C99.0211 100.048 98.9366 99.2855 99.0349 98.2818C99.1832 97.6153 99.5269 97.0564 100.053 96.6194C101.316 95.8434 102.75 95.7314 103.972 96.6587ZM100.528 97.7045C100.165 98.2576 99.985 98.7091 100.093 99.3745C100.248 99.9622 100.585 100.336 101.071 100.683C101.501 100.933 101.977 100.925 102.46 100.868C103.079 100.696 103.435 100.3 103.756 99.7594C103.93 99.2384 103.921 98.6713 103.739 98.1548C103.377 97.6321 102.968 97.2896 102.367 97.0811C101.64 96.989 101.058 97.1982 100.528 97.7045Z" fill="white"/>
<path d="M47 96C50.1465 96 50.1465 96 51.1173 96.7564C51.8436 97.486 52.0089 98.318 51.9996 99.3094C51.8656 100.22 51.5514 100.869 50.8098 101.454C49.6915 102.218 48.3143 101.957 47 101.957C47 99.9911 47 98.0254 47 96ZM48.1764 97.1347C48.1764 98.3516 48.1764 99.5685 48.1764 100.822C49.3117 100.883 49.3117 100.883 50.2351 100.444C50.722 99.9367 50.8609 99.4606 50.8504 98.7775C50.7886 98.2667 50.5396 97.8626 50.1432 97.5247C49.4383 97.0529 49.1139 97.1347 48.1764 97.1347Z" fill="white"/>
<path d="M108 96C108.367 96.1727 108.552 96.3121 108.835 96.5805C108.919 96.6599 109.003 96.7393 109.09 96.821C109.177 96.9042 109.264 96.9874 109.354 97.0731C109.44 97.1541 109.526 97.2351 109.615 97.3186C110.045 97.7265 110.464 98.1378 110.857 98.5783C111.134 98.8685 111.433 99.1396 111.725 99.4154C111.758 98.3188 111.79 97.2222 111.824 96.0923C112.212 96.0923 112.6 96.0923 113 96.0923C113 98.0418 113 99.9914 113 102C112.611 101.909 112.541 101.879 112.283 101.625C112.193 101.536 112.193 101.536 112.1 101.446C111.939 101.279 111.783 101.11 111.627 100.938C111.211 100.482 110.752 100.064 110.296 99.642C110.235 99.5851 110.173 99.5281 110.11 99.4695C110.055 99.4191 110.001 99.3687 109.944 99.3167C109.709 99.0831 109.494 98.8321 109.275 98.5846C109.242 99.6812 109.21 100.778 109.176 101.908C108.788 101.908 108.4 101.908 108 101.908C108 99.9582 108 98.0086 108 96Z" fill="white"/>
<path d="M61.7473 96.1087C62.1011 96.2963 62.3535 96.5184 62.5591 96.8628C62.6267 97.2104 62.6267 97.2104 62.6492 97.5011C62.3223 97.5312 61.9954 97.5613 61.6586 97.5923C61.5992 97.4418 61.5397 97.2914 61.4785 97.1363C61.2408 97.1363 61.003 97.1363 60.7581 97.1363C60.7004 97.7783 60.8407 98.1631 61.2084 98.6865C61.3953 98.9105 61.5871 99.1265 61.787 99.3387C61.9288 99.5072 61.9288 99.5072 61.9288 99.6896C62.0179 99.7197 62.1071 99.7498 62.1989 99.7808C62.2584 99.5099 62.3178 99.2391 62.379 98.9601C62.7059 98.9601 63.0328 98.9601 63.3696 98.9601C63.388 99.5453 63.3319 100.034 63.1895 100.601C63.5907 100.782 63.5907 100.782 64 100.966C64 101.267 64 101.568 64 101.878C63.2541 101.821 63.2541 101.821 62.8968 101.633C62.6602 101.485 62.6602 101.485 62.4353 101.57C62.3183 101.632 62.3183 101.632 62.1989 101.696C61.5126 102.007 60.8392 102.1 60.1052 101.878C59.6805 101.694 59.3967 101.344 59.1371 100.966C58.9719 100.464 58.9371 99.8692 59.1382 99.374C59.2882 99.1286 59.4342 98.923 59.6525 98.736C59.789 98.6028 59.789 98.6028 59.7513 98.4179C59.7307 98.3524 59.71 98.2868 59.6887 98.2192C59.5419 97.6477 59.5684 97.188 59.8182 96.6519C60.3203 96.0913 61.0226 95.8386 61.7473 96.1087ZM60.1615 99.5585C59.9881 99.8698 59.9888 100.067 60.0377 100.419C60.2697 100.747 60.4179 100.856 60.8031 100.961C61.1162 100.966 61.2931 100.928 61.5686 100.784C61.4444 100.499 61.3018 100.313 61.0789 100.1C60.8986 99.9238 60.7448 99.7627 60.5949 99.5585C60.5419 99.488 60.5419 99.488 60.4879 99.416C60.2956 99.395 60.2956 99.395 60.1615 99.5585Z" fill="white"/>
<path d="M116 96C119.192 96 119.192 96 120.081 96.7516C120.78 97.4422 120.964 98.0875 121 99.0347C120.981 99.7802 120.808 100.462 120.343 101.072C119.098 102.185 117.697 101.986 116 101.986C116 100.011 116 98.0353 116 96ZM117.09 97.1402C117.09 98.3631 117.09 99.586 117.09 100.846C118.346 100.914 118.346 100.914 119.271 100.371C119.783 99.8423 119.808 99.3896 119.801 98.6895C119.752 98.2357 119.596 97.9448 119.271 97.6153C118.539 97.0564 118.084 97.1402 117.09 97.1402Z" fill="white"/>
<path d="M71 96C74.2207 96 74.2207 96 75.2343 96.8594C75.8843 97.5344 76.0113 98.3472 75.9992 99.238C75.9625 100.035 75.7003 100.683 75.1298 101.266C73.9913 102.208 72.394 101.974 71 101.974C71 100.003 71 98.0312 71 96ZM72.0895 97.1379C72.0895 98.3584 72.0895 99.5788 72.0895 100.836C73.3146 100.915 73.3146 100.915 74.2516 100.405C74.689 99.921 74.8816 99.5186 74.8505 98.8727C74.7658 98.2553 74.5904 97.8124 74.0705 97.4224C73.4366 97.0445 72.8521 97.1379 72.0895 97.1379Z" fill="white"/>
<path d="M85.3333 96C85.4158 96 85.4983 96 85.5833 96C86.2298 97.5402 86.8712 99.0827 87.4948 100.635C87.5205 100.699 87.5462 100.762 87.5726 100.828C87.6449 101.008 87.7168 101.187 87.7887 101.367C87.8297 101.469 87.8706 101.571 87.9127 101.676C88 101.906 88 101.906 88 102C87.6425 102 87.285 102 86.9167 102C86.8067 101.752 86.6967 101.505 86.5833 101.25C85.8408 101.25 85.0983 101.25 84.3333 101.25C84.2233 101.498 84.1133 101.745 84 102C83.67 102 83.34 102 83 102C83.0589 101.669 83.0982 101.462 83.2186 101.172C83.2462 101.105 83.2738 101.038 83.3023 100.969C83.3323 100.897 83.3623 100.825 83.3932 100.752C83.44 100.638 83.44 100.638 83.4878 100.523C83.5887 100.279 83.6902 100.035 83.7917 99.791C83.8948 99.5418 83.9978 99.2926 84.1008 99.0433C84.1683 98.8797 84.236 98.7162 84.3036 98.5527C84.5571 97.9401 84.8067 97.3258 85.0521 96.709C85.082 96.6338 85.1119 96.5586 85.1427 96.4812C85.2064 96.3209 85.2699 96.1604 85.3333 96ZM85.4167 98.3438C85.3051 98.6208 85.1941 98.8983 85.0833 99.1758C85.0515 99.2547 85.0197 99.3336 84.987 99.4149C84.9569 99.4904 84.9268 99.566 84.8958 99.6438C84.8679 99.7135 84.84 99.7832 84.8112 99.8551C84.7399 100.029 84.7399 100.029 84.75 100.219C85.2175 100.219 85.685 100.219 86.1667 100.219C86.1077 99.8872 86.0701 99.6847 85.9476 99.3966C85.9215 99.3347 85.8955 99.2727 85.8687 99.2089C85.8415 99.1458 85.8144 99.0826 85.7865 99.0176C85.759 98.9526 85.7316 98.8877 85.7033 98.8207C85.6359 98.6615 85.568 98.5026 85.5 98.3438C85.4725 98.3438 85.445 98.3438 85.4167 98.3438Z" fill="white"/>
<path d="M127.225 96.4235C127.472 96.5992 127.623 96.7622 127.744 97.0106C127.593 97.3776 127.349 97.4545 126.953 97.6529C126.702 97.5582 126.508 97.4743 126.304 97.3203C125.928 97.1339 125.575 97.1263 125.146 97.1941C124.863 97.3623 124.863 97.3623 124.694 97.5612C124.732 97.7835 124.732 97.7835 124.92 98.0199C125.248 98.184 125.602 98.2963 125.958 98.4157C126.849 98.734 127.52 99.0329 127.97 99.7634C128.033 100.31 128.031 100.77 127.631 101.232C126.997 101.785 126.377 101.966 125.45 102C124.697 101.986 124.035 101.844 123.453 101.444C123.116 101.151 123.116 101.151 123 100.956C123.019 100.766 123.019 100.766 123.113 100.589C123.459 100.383 123.459 100.383 123.791 100.222C124.077 100.329 124.291 100.438 124.539 100.601C125.05 100.831 125.476 100.862 126.05 100.773C126.422 100.593 126.422 100.593 126.614 100.314C126.653 100.065 126.653 100.065 126.501 99.8551C126.315 99.7898 126.126 99.7298 125.937 99.6716C125.615 99.5499 125.299 99.4191 124.984 99.2874C124.9 99.2542 124.817 99.221 124.731 99.1868C124.145 98.9409 123.692 98.6638 123.339 98.2035C123.196 97.7491 123.255 97.2627 123.508 96.8386C123.85 96.427 124.382 96.16 124.968 96.0342C125.793 95.9408 126.54 96.0286 127.225 96.4235Z" fill="white"/>
<path d="M41 96C41.3821 96 41.7642 96 42.1579 96C42.1579 97.6029 42.1579 99.2057 42.1579 100.857C43.0958 100.857 44.0337 100.857 45 100.857C45 101.234 45 101.611 45 102C43.68 102 42.36 102 41 102C41 100.02 41 98.04 41 96Z" fill="white"/>
<path d="M73.4606 29.5801C73.4864 29.5801 73.5122 29.5801 73.5387 29.5801C73.5511 29.6522 73.5635 29.7243 73.5762 29.7985C73.7258 30.5896 73.9159 31.1649 74.553 31.676C75.0359 31.9931 75.5471 32.1297 76.1165 32.1721C75.9025 32.2899 75.722 32.3507 75.4818 32.3881C74.8444 32.5254 74.3096 32.8685 73.9433 33.4126C73.6938 33.882 73.5954 34.3967 73.5387 34.9213C73.5129 34.9213 73.4872 34.9213 73.4606 34.9213C73.4491 34.851 73.4376 34.7808 73.4258 34.7084C73.278 33.9069 73.092 33.2421 72.4012 32.7612C72.019 32.5256 71.6515 32.3943 71.2099 32.3194C71.1337 32.3063 71.0575 32.2931 70.9789 32.2795C70.8927 32.2653 70.8927 32.2653 70.8047 32.2507C70.8047 32.2248 70.8047 32.1988 70.8047 32.1721C70.8633 32.1654 70.9219 32.1586 70.9823 32.1516C71.8004 32.0387 72.4358 31.8186 72.9608 31.1532C73.2924 30.6698 73.3737 30.1487 73.4606 29.5801Z" fill="#D1B54D"/>
<path d="M79 96C79.33 96 79.66 96 80 96C80 97.98 80 99.96 80 102C79.67 102 79.34 102 79 102C79 100.02 79 98.04 79 96Z" fill="white"/>
</g>
<defs>
<clipPath id="clip0_654_238">
<rect width="121" height="93" fill="white" transform="translate(13 9)"/>
</clipPath>
</defs>
</svg>
