<svg width="21" height="21" viewBox="0 0 21 21" fill="none" xmlns="http://www.w3.org/2000/svg">
<path d="M19.8909 16.0307C19.1465 15.2807 17.3437 14.1862 16.469 13.7451C15.33 13.1713 15.2362 13.1245 14.3409 13.7896C13.7437 14.2335 13.3467 14.6301 12.6478 14.481C11.9489 14.332 10.4301 13.4915 9.10027 12.1659C7.77042 10.8402 6.88121 9.27742 6.73167 8.58086C6.58214 7.8843 6.98527 7.49195 7.42496 6.89336C8.04464 6.04961 7.99777 5.90898 7.46808 4.76992C7.05511 3.88398 5.92871 2.09805 5.17589 1.35742C4.37058 0.561952 4.37058 0.702577 3.85167 0.918202C3.42921 1.09591 3.02392 1.31197 2.64089 1.56367C1.89089 2.06195 1.47464 2.47586 1.18355 3.09789C0.892456 3.71992 0.761675 5.1782 2.26496 7.90914C3.76824 10.6401 4.82292 12.0365 7.00589 14.2134C9.18886 16.3902 10.8675 17.5607 13.3214 18.937C16.357 20.6371 17.5214 20.3057 18.1453 20.0151C18.7692 19.7245 19.185 19.312 19.6842 18.562C19.9365 18.1796 20.1531 17.7747 20.3311 17.3526C20.5471 16.8355 20.6878 16.8355 19.8909 16.0307Z" stroke="#FFFCAD" stroke-miterlimit="10"/>
</svg>
