<svg width="43" height="43" viewBox="0 0 43 43" fill="none" xmlns="http://www.w3.org/2000/svg">
<path d="M6.5637 36.9647C4.51023 34.9814 2.87231 32.609 1.74552 29.9859C0.618723 27.3628 0.0256188 24.5416 0.00081177 21.6868C-0.0239953 18.8321 0.519991 16.001 1.60103 13.3587C2.68207 10.7164 4.27851 8.3159 6.2972 6.2972C8.3159 4.27851 10.7164 2.68207 13.3587 1.60103C16.001 0.519991 18.8321 -0.0239953 21.6868 0.00081177C24.5416 0.0256188 27.3628 0.618723 29.9859 1.74552C32.609 2.87231 34.9814 4.51023 36.9647 6.5637C40.8811 10.6186 43.0482 16.0496 42.9992 21.6868C42.9502 27.3241 40.6891 32.7165 36.7028 36.7028C32.7165 40.6891 27.3241 42.9502 21.6868 42.9992C16.0496 43.0482 10.6186 40.8811 6.5637 36.9647ZM9.5952 33.9332C12.8226 37.1606 17.1999 38.9738 21.7642 38.9738C26.3285 38.9738 30.7058 37.1606 33.9332 33.9332C37.1606 30.7058 38.9738 26.3285 38.9738 21.7642C38.9738 17.1999 37.1606 12.8226 33.9332 9.5952C30.7058 6.36778 26.3285 4.55463 21.7642 4.55463C17.1999 4.55463 12.8226 6.36778 9.5952 9.5952C6.36778 12.8226 4.55463 17.1999 4.55463 21.7642C4.55463 26.3285 6.36778 30.7058 9.5952 33.9332ZM30.8802 15.6797L24.7957 21.7642L30.8802 27.8487L27.8487 30.8802L21.7642 24.7957L15.6797 30.8802L12.6482 27.8487L18.7327 21.7642L12.6482 15.6797L15.6797 12.6482L21.7642 18.7327L27.8487 12.6482L30.8802 15.6797Z" fill="white"/>
</svg>
