<svg width="71" height="60" viewBox="0 0 71 60" fill="none" xmlns="http://www.w3.org/2000/svg">
<path d="M54.625 19.5029H13.375C12.3395 19.5029 11.5 20.3424 11.5 21.3779C11.5 22.4135 12.3395 23.2529 13.375 23.2529H54.625C55.6605 23.2529 56.5 22.4135 56.5 21.3779C56.5 20.3424 55.6605 19.5029 54.625 19.5029Z" fill="white"/>
<path d="M47.125 30.1279H13.375C12.3395 30.1279 11.5 30.9674 11.5 32.0029C11.5 33.0385 12.3395 33.8779 13.375 33.8779H47.125C48.1605 33.8779 49 33.0385 49 32.0029C49 30.9674 48.1605 30.1279 47.125 30.1279Z" fill="white"/>
<path d="M54.625 40.7471H13.375C12.3395 40.7471 11.5 41.5865 11.5 42.6221C11.5 43.6576 12.3395 44.4971 13.375 44.4971H54.625C55.6605 44.4971 56.5 43.6576 56.5 42.6221C56.5 41.5865 55.6605 40.7471 54.625 40.7471Z" fill="white"/>
</svg>
